<svg width="86" height="71" viewBox="0 0 86 71" fill="none" xmlns="http://www.w3.org/2000/svg">
<path d="M20.9818 68.0152C15.6252 66.9536 9.99048 61.44 1.83745 54.6926C1.65378 54.5554 1.48441 54.4158 1.32983 54.2736L2.11789 53.6732L1.5761 53.19L0 53.6333L16.4013 68.8525C37.3454 71.2175 48.3384 71.2733 66.4425 68.8525L85.0602 53.4363L83.0994 52.9884L82.3935 53.6732L82.8438 54.2736C73.5297 62.3897 68.3309 66.9002 63.0933 68.0152C47.6331 69.3832 38.389 69.3621 20.9818 68.0152Z" fill="#362520"/>
<path d="M1.83745 54.6926C9.99048 61.44 15.6252 66.9536 20.9818 68.0152C38.389 69.3621 47.6331 69.3832 63.0933 68.0152C68.3309 66.9002 73.5297 62.3897 82.8438 54.2736C72.4321 62.1187 12.5973 62.7265 1.83745 54.6926Z" fill="#3A2D1F"/>
<path d="M1.32983 54.2736C1.50012 54.4138 1.66932 54.5534 1.83745 54.6926C12.5973 62.7265 72.4321 62.1187 82.8438 54.2736L82.3935 53.6732C78.89 55.2713 73.6507 56.5054 67.4768 57.3847C67.2158 57.4218 66.9531 57.4584 66.6888 57.4943C64.7177 57.7621 62.6571 57.9946 60.5321 58.1922C60.2053 58.2226 59.8769 58.2522 59.5471 58.2809C56.7735 58.5226 53.8987 58.7059 50.977 58.8315C50.6819 58.8442 50.3864 58.8563 50.0904 58.8678C46.9309 58.9906 43.7231 59.0463 40.5353 59.0358C40.2067 59.0347 39.8784 59.0329 39.5503 59.0305C37.0602 59.0116 34.5867 58.9521 32.1623 58.8526C31.899 58.8418 31.6363 58.8305 31.3743 58.8188C28.2764 58.6798 25.2654 58.4748 22.4102 58.2046C22.1793 58.1827 21.9494 58.1604 21.7206 58.1377C18.7401 57.842 15.9386 57.4739 13.3969 57.0344C13.1982 57 13.0012 56.9653 12.8058 56.93C8.14503 56.0901 4.40834 55.0025 2.11789 53.6732L1.32983 54.2736Z" fill="#362520"/>
<path d="M82.8438 53.2364C78.2044 54.4959 73.0158 55.4984 67.4768 56.238C67.2149 56.2729 66.9522 56.3073 66.6888 56.3411C64.6778 56.5991 62.6225 56.8227 60.5321 57.0118C60.2046 57.0415 59.8762 57.0703 59.5471 57.0982C56.7428 57.3361 53.8787 57.5124 50.977 57.6265C50.6819 57.6381 50.3863 57.649 50.0904 57.6594C46.9375 57.7692 43.7431 57.8059 40.5353 57.7685C40.2071 57.7647 39.8787 57.7601 39.5503 57.7547C37.1552 57.7155 34.7543 57.6351 32.3593 57.513C32.0966 57.4997 31.8339 57.4858 31.5713 57.4714C28.614 57.3093 25.6679 57.0836 22.755 56.7938C22.5413 56.7725 22.3279 56.7509 22.1147 56.729C19.3007 56.4394 16.5194 56.0896 13.7909 55.6791C13.5936 55.6494 13.3966 55.6194 13.1998 55.5891C9.2654 54.9828 5.44422 54.2494 1.79702 53.387L2.11789 53.6732C4.40834 55.0025 8.14503 56.0901 12.8058 56.93C13.0012 56.9653 13.1982 57 13.3969 57.0344C15.9386 57.4739 18.7401 57.842 21.7206 58.1377C21.9494 58.1604 22.1793 58.1827 22.4102 58.2046C25.2654 58.4748 28.2764 58.6798 31.3743 58.8188C31.6363 58.8305 31.899 58.8418 32.1623 58.8526C34.5867 58.9521 37.0602 59.0116 39.5503 59.0305C39.8784 59.0329 40.2067 59.0347 40.5353 59.0358C43.7231 59.0463 46.9309 58.9906 50.0904 58.8678C50.3864 58.8563 50.6819 58.8442 50.977 58.8315C53.8987 58.7059 56.7735 58.5226 59.5471 58.2809C59.8769 58.2522 60.2053 58.2226 60.5321 58.1922C62.6571 57.9946 64.7177 57.7621 66.6888 57.4943C66.9531 57.4584 67.2158 57.4218 67.4768 57.3847C73.6507 56.5054 78.89 55.2713 82.3935 53.6732L82.8438 53.2364Z" fill="#715941"/>
<path d="M1.79702 53.387C5.44422 54.2494 9.2654 54.9828 13.1998 55.5891C13.3966 55.6194 13.5936 55.6494 13.7909 55.6791C16.5194 56.0896 19.3007 56.4394 22.1147 56.729C22.3279 56.7509 22.5413 56.7725 22.755 56.7938C25.6679 57.0836 28.614 57.3093 31.5713 57.4714C31.8339 57.4858 32.0966 57.4997 32.3593 57.513C34.7543 57.6351 37.1552 57.7155 39.5503 57.7547C39.8787 57.7601 40.2071 57.7647 40.5353 57.7685C43.7431 57.8059 46.9375 57.7692 50.0904 57.6594C50.3863 57.649 50.6819 57.6381 50.977 57.6265C53.8787 57.5124 56.7428 57.3361 59.5471 57.0982C59.8762 57.0703 60.2046 57.0415 60.5321 57.0118C62.6225 56.8227 64.6778 56.5991 66.6888 56.3411C66.9522 56.3073 67.2149 56.2729 67.4768 56.238C73.0158 55.4984 78.2044 54.4959 82.8438 53.2364L83.0901 52.993C60.4336 58.4601 27.6803 58.5284 1.5761 53.19L1.79702 53.387Z" fill="#362520"/>
<path d="M71.2194 63.4343C57.133 70.379 25.217 69.7387 13.1007 63.4343" stroke="black" stroke-opacity="0.2" stroke-width="0.545876"/>
<path d="M9.94849 61.0211C23.3453 68.4583 58.4136 67.4732 74.2731 61.0211" stroke="black" stroke-opacity="0.2" stroke-width="0.545876"/>
<path d="M5.66389 57.4258C18.913 65.3555 58.1677 65.1093 79.0511 57.4258" stroke="black" stroke-opacity="0.2" stroke-width="0.545876"/>
<path d="M45.9238 56.6182C45.7169 56.6478 45.4657 57.5963 45.0668 57.9185H46.3375V56.8546C46.3375 56.7069 46.1307 56.5887 45.9238 56.6182Z" fill="#594632"/>
<path d="M47.6676 56.5934C47.8744 56.623 48.1257 57.5715 48.5246 57.8937H47.2539V56.8298C47.2539 56.6821 47.4607 56.5639 47.6676 56.5934Z" fill="#594632"/>
<path d="M12.8312 56.9333C13.0266 56.9685 13.2236 57.0033 13.4222 57.0376L13.8162 55.6824C13.619 55.6527 13.4219 55.6227 13.2252 55.5924L12.8312 56.9333Z" fill="#362520" fill-opacity="0.2"/>
<path d="M22.7803 56.797C22.5667 56.7758 22.3533 56.7542 22.14 56.7322L21.746 58.141C21.9748 58.1637 22.2047 58.186 22.4355 58.2078L22.7803 56.797Z" fill="#362520" fill-opacity="0.2"/>
<path d="M32.3847 57.5163C32.1219 57.5029 31.8592 57.489 31.5966 57.4746L31.3996 58.822C31.6617 58.8338 31.9244 58.845 32.1877 58.8558L32.3847 57.5163Z" fill="#362520" fill-opacity="0.2"/>
<path d="M40.5607 57.7718C40.2325 57.768 39.9041 57.7634 39.5756 57.758V59.0337C39.9037 59.0362 40.2321 59.038 40.5607 59.0391V57.7718Z" fill="#362520" fill-opacity="0.2"/>
<path d="M51.0024 57.6297C50.7072 57.6413 50.4117 57.6523 50.1158 57.6626V58.871C50.4118 58.8595 50.7073 58.8474 51.0024 58.8347V57.6297Z" fill="#362520" fill-opacity="0.2"/>
<path d="M60.5575 57.0151C60.23 57.0447 59.9016 57.0735 59.5724 57.1014V58.2842C59.9022 58.2554 60.2306 58.2259 60.5575 58.1955V57.0151Z" fill="#362520" fill-opacity="0.2"/>
<path fill-rule="evenodd" clip-rule="evenodd" d="M67.5022 56.2412C73.0412 55.5016 78.2298 54.4992 82.8692 53.2396L82.4188 53.6764C78.9154 55.2746 73.676 56.5086 67.5022 57.3879V56.2412ZM66.7141 56.3444C64.7032 56.6023 62.6479 56.826 60.5575 57.0151V58.1955C62.6825 57.9979 64.7431 57.7653 66.7141 57.4975V56.3444ZM59.5724 57.1014V58.2842C56.7989 58.5259 53.9241 58.7092 51.0024 58.8347V57.6297C53.9041 57.5157 56.7682 57.3394 59.5724 57.1014ZM50.1158 57.6626C46.9629 57.7725 43.7684 57.8091 40.5607 57.7718V59.0391C43.7485 59.0496 46.9562 58.9938 50.1158 58.871V57.6626ZM39.5756 57.758V59.0337C37.0856 59.0148 34.6121 58.9554 32.1877 58.8558L32.3847 57.5163C34.7796 57.6383 37.1805 57.7188 39.5756 57.758ZM31.5966 57.4746C28.6394 57.3125 25.6932 57.0869 22.7803 56.797L22.4355 58.2078C25.2908 58.4781 28.3018 58.6831 31.3996 58.822L31.5966 57.4746ZM22.14 56.7322L21.746 58.141C18.7655 57.8452 15.964 57.4771 13.4222 57.0376L13.8162 55.6824C16.5448 56.0929 19.3261 56.4426 22.14 56.7322ZM13.2252 55.5924C9.29076 54.986 5.46959 54.2526 1.82239 53.3903L2.14325 53.6764C4.43371 55.0057 8.1704 56.0934 12.8312 56.9333L13.2252 55.5924Z" fill="#715941"/>
<path d="M67.5022 56.2412C67.2403 56.2762 66.9776 56.3106 66.7141 56.3444V57.4975C66.9784 57.4616 67.2411 57.4251 67.5022 57.3879V56.2412Z" fill="#362520" fill-opacity="0.2"/>
<path d="M42.5549 58.2145C42.2101 58.2638 41.7913 59.8446 41.1266 60.3816H43.2444V58.6085C43.2444 58.3623 42.8997 58.1653 42.5549 58.2145Z" fill="#594632"/>
<path d="M45.4608 58.1724C45.8056 58.2216 46.2244 59.8025 46.8891 60.3395H44.7713V58.5664C44.7713 58.3202 45.116 58.1231 45.4608 58.1724Z" fill="#594632"/>
<path d="M52.7684 66.5453L52.6096 1.22681L53.8274 1.3143L54.1303 66.3105L52.7684 66.5453Z" fill="#362520"/>
<path fill-rule="evenodd" clip-rule="evenodd" d="M52.5865 4.16792C46.3325 24.0055 41.9431 37.3818 32.2644 54.7098C37.6108 53.6106 41.3812 53.1957 45.7241 53.428C50.1319 36.9528 51.0399 25.2171 52.5865 4.16792Z" fill="#F1F3F2"/>
<path d="M52.6721 54.2153C51.192 36.006 51.4441 22.7935 52.5865 4.16792C51.0399 25.2171 50.1319 36.9528 45.7241 53.428C47.825 53.5404 50.0599 53.8042 52.6721 54.2153Z" fill="#A4BFD6"/>
<path d="M47.4824 62.6163C56.717 40.7637 57.3301 26.9028 53.8313 4.21051C61.4473 11.072 70.3756 30.0619 80.9825 52.4277C67.5474 51.7623 60.2993 55.1387 47.4824 62.6163Z" fill="#F1F3F2"/>
<path d="M44.4404 4.00562C48.3168 3.77988 49.1246 2.98894 52.6177 1.22856L52.6139 6.40975C48.5812 5.99543 47.7773 5.10682 44.4404 4.00562Z" fill="#E23234"/>
</svg>
