<svg width="183" height="229" viewBox="0 0 183 229" fill="none" xmlns="http://www.w3.org/2000/svg">
<path d="M50.3104 48.4322C46.7269 43.7372 40.7894 43.8884 37.6612 45.1466C36.2032 47.6355 37.5698 49.6055 39.1111 49.6498C39.6324 49.7344 41.2446 49.8416 42.9985 50.0746C44.8311 50.3181 46.9643 52.3976 47.8196 53.7876C47.4856 52.129 49.4498 49.9381 50.3104 48.4322Z" fill="#D9BFAB"/>
<path d="M120.769 30.6398C122.869 24.7289 128.067 22.5994 131.308 23.1296C133.194 24.6715 133.006 26.874 131.462 28.2706C130.999 28.4948 129.699 29.4216 128.256 30.3628C126.653 31.4089 124.925 33.9897 124.495 35.6867C124.369 33.8388 121.966 32.0177 120.769 30.6398Z" fill="#D9BFAB"/>
<path d="M0.0678711 207.22C11.1471 180.353 31.9205 144.092 40.9224 129.32L109.821 137.975C108.205 144.092 104.42 163.457 104.974 175.367C105.528 187.278 99.2035 211.836 97.7032 225.57C88.8398 230.833 83.6234 227.301 82.1231 224.878C81.7768 224.185 80.6689 222.454 79.007 221.069C77.3452 219.684 68.3895 220.492 64.1194 221.069C59.3877 221.069 46.3235 220.723 31.9205 219.338C17.5176 217.953 14.8401 212.067 15.3017 209.297C15.5326 207.682 15.0248 204.243 11.1471 203.412C7.26934 202.581 2.14522 205.604 0.0678711 207.22Z" fill="#994043"/>
<path d="M127.132 227.994L113.629 147.02L110.86 140.399C124.801 136.514 149.104 119.564 148.663 114.449C148.557 114.056 148.525 113.913 148.598 114.129C148.632 114.23 148.654 114.336 148.663 114.449C149.133 116.19 151.055 122.841 151.714 124.819C153.561 129.435 155.8 140.191 158.292 144.9C160.785 149.608 180.797 200.296 182.874 208.951L180.797 211.721C179.297 213.452 175.05 217.33 170.064 218.992C165.078 220.654 157.6 218.992 154.484 217.953C153.214 217.376 150.052 216.153 147.559 215.876C145.067 215.599 141.904 218.992 140.635 220.723C142.297 216.568 139.942 215.068 138.558 214.837C134.749 215.414 127.548 217.399 129.21 220.723C130.871 224.047 133.133 224.185 134.057 223.839L127.132 227.994Z" fill="#994043"/>
<path fill-rule="evenodd" clip-rule="evenodd" d="M134.285 35.6209C117.558 20.8822 75.404 -9.98703 49.6169 41.4464C40.9116 58.8095 36.4768 66.3197 33.5225 71.3227C30.4318 76.5566 28.9615 79.0464 25.9172 87.203C22.5341 96.2674 18.4243 133.886 46.499 132.218C54.3075 132.218 62.2826 134.532 71.6187 139.835C80.9548 145.138 93.8695 145.329 101.391 145.01C117.882 141.391 152.802 126.331 160.553 95.036C162.709 85.6456 162.968 62.4044 134.285 35.6209ZM95.6483 35.9679C84.0831 37.3526 71.6189 46.7006 66.7716 65.0505C59.3587 93.1126 59.861 101.043 60.0482 103.999C60.0604 104.192 60.0713 104.365 60.0786 104.52C60.1204 105.415 60.1018 106.441 60.0815 107.563C59.9082 117.118 59.61 133.569 95.5199 134.393C96.8262 134.303 98.2715 134.237 99.8286 134.166C112.9 133.567 133.851 132.607 146.638 114.494C160.947 94.2232 154.629 86.1136 150.418 81.7545C147.056 78.274 143.622 72.2159 140.151 66.0935C136.377 59.4363 132.561 52.7029 128.746 49.1242C118.577 39.5843 110.396 35.968 95.6483 35.9679Z" fill="#AA4245"/>
<path d="M34.0533 38.557C41.8088 33.8484 48.8256 38.4416 51.3646 41.3268C50.6721 47.3281 48.3178 58.638 44.4401 55.8682C40.5624 53.0984 35.8999 52.1752 34.0533 52.0598C28.8602 52.0598 26.2979 43.2657 34.0533 38.557Z" fill="#AA4245"/>
<path d="M128.654 15.4933C119.174 16.0829 115.555 24.0686 114.93 27.9878C118.902 32.6327 127.313 40.7706 129.184 36.1626C131.054 31.5547 134.651 28.0403 136.216 26.8591C140.799 23.8103 138.135 14.9037 128.654 15.4933Z" fill="#AA4245"/>
<rect x="106.013" y="139.411" width="6.85525" height="8.50033" rx="0.692449" transform="rotate(-9.13907 106.013 139.411)" fill="#E1CDCD"/>
<path d="M30.1738 172.519C29.9735 169.923 41.6775 151.043 47.1998 142.145C49.5008 136.163 69.9336 135.427 70.6699 149.048C71.4062 162.67 66.0679 185.864 62.8465 186.785C60.0866 188.165 30.6354 178.502 30.1738 172.519Z" fill="#AA4245"/>
</svg>
