<svg width="226" height="388" viewBox="0 0 226 388" fill="none" xmlns="http://www.w3.org/2000/svg">
<path d="M19.1386 378.07C15.6104 373.03 13.0482 359.799 12.2082 353.814C80.357 345.413 217.096 331.069 218.86 340.898C220.624 350.727 215.499 358.749 212.874 361.059C124.984 402.641 23.5488 384.37 19.1386 378.07Z" fill="#D9A75D"/>
<path d="M193.029 32.8768C193.029 45.4033 184.838 59.521 172.553 52.0267C163.417 34.0046 164.047 35.2647 148.926 30.9206C148.926 18.3941 154.887 10.1956 168.457 10.1956C182.028 10.1956 193.029 20.3503 193.029 32.8768Z" fill="#DFAD63"/>
<ellipse cx="42.8439" cy="37.1466" rx="24.5714" ry="22.6813" fill="#EBB769"/>
<path d="M11.8933 355.074C-0.959397 321.304 26.1927 229.066 42.4687 191.579C82.7909 217.285 152.305 207.96 182.021 200.085C218.311 246.707 238.076 332.077 216.655 345.623C188.933 367.044 24.746 388.844 11.8933 355.074Z" fill="#E2AF62"/>
<path fill-rule="evenodd" clip-rule="evenodd" d="M67.651 16.7448C80.8816 4.77441 89.7021 0.553174 101.043 0.0491462C112.383 -0.454882 124.039 2.99223 134.435 6.97904C154.281 14.5902 177.256 40.0382 192.881 67.2557C212.412 101.278 235.241 152.202 214.135 181.499C197.25 204.936 181.373 208.275 169.087 210.165C137.21 216.364 126.706 215.041 99.317 211.592C95.7896 211.148 91.9821 210.668 87.8128 210.165C51.2708 205.755 18.9495 191.075 10.6331 181.499C0.237499 169.528 -10.3265 114.6 27.9588 60.2172C47.553 32.3845 49.8575 30.7019 56.1832 26.0832C58.807 24.1674 62.1227 21.7465 67.651 16.7448ZM147.976 33.1688C135.833 22.6534 119.286 8.32402 108.141 29.4536C99.4931 45.8489 91.2958 56.6733 85.7134 64.0449C83.4872 66.9845 81.6769 69.3751 80.4196 71.3508C63.1987 94.8721 31.5919 147.396 42.9325 169.321C54.2732 191.246 105.831 202.188 130.192 204.918C148.883 205.758 189.479 199.815 202.331 169.321C215.184 138.828 204.536 112.618 198.551 101.277C191.516 85.2567 169.97 51.8197 150.984 35.7539C150.017 34.9363 149.013 34.0665 147.976 33.1688Z" fill="#EBB769"/>
<path d="M145.946 212.391C139.588 219.985 129.617 234.809 136.343 239.367C143.069 243.925 145.193 223.783 145.946 212.391ZM145.946 212.391C147.244 225.363 152.433 249.708 158.558 249.326C164.431 248.96 154.237 224.465 147.711 210.76C147.424 210.157 146.556 210.228 146.374 210.87C142.601 224.134 136.793 248.927 140.238 254.861M145.946 212.391C147.707 221.064 152.25 262.909 150.809 272.661" stroke="#C49755" stroke-width="2.92221" stroke-linecap="round"/>
<path opacity="0.35" fill-rule="evenodd" clip-rule="evenodd" d="M67.6505 16.7448C80.8811 4.77441 89.7016 0.553174 101.042 0.0491462C112.383 -0.454882 124.039 2.99223 134.435 6.97904C140.184 9.18393 146.196 12.8857 152.215 17.6937C155.29 12.9454 160.597 10.1953 168.457 10.1953C182.027 10.1953 193.028 20.3501 193.028 32.8766C193.028 40.9833 189.598 49.7565 183.847 52.9069C187.053 57.5718 190.085 62.3854 192.881 67.2557C212.412 101.278 235.241 152.202 214.134 181.499C204.301 195.148 194.809 201.981 186.169 205.681C218.289 251.113 235.66 325.613 219.175 343.504C219.722 352.124 215.263 358.957 212.874 361.059C124.984 402.641 23.5483 384.37 19.1381 378.07C16.1048 373.737 13.7856 363.35 12.6608 356.718C12.3635 356.185 12.107 355.637 11.8926 355.074C-0.258336 323.148 23.3463 238.964 39.713 198.191C25.4828 192.667 14.899 186.412 10.6326 181.499C0.237011 169.528 -10.327 114.6 27.9583 60.2172C28.8129 59.0032 29.6347 57.839 30.4253 56.7222C23.154 52.7834 18.2722 45.4912 18.2722 37.1466C18.2722 24.6201 29.2731 14.4653 42.8435 14.4653C50.2034 14.4653 56.8075 17.4523 61.3108 22.1845C63.0585 20.7784 65.1233 19.0313 67.6505 16.7448ZM147.976 33.1688C135.833 22.6534 119.286 8.32402 108.141 29.4536C99.4926 45.8489 91.2953 56.6733 85.7129 64.0449C83.4868 66.9845 81.6764 69.3751 80.4191 71.3508C63.1982 94.8721 31.5914 147.396 42.932 169.321C54.2727 191.246 105.831 202.188 130.192 204.918C148.883 205.758 189.478 199.815 202.331 169.321C215.184 138.828 204.536 112.618 198.551 101.277C191.515 85.2567 169.97 51.8197 150.983 35.7539C150.017 34.9368 149.014 34.0675 147.978 33.1705L147.976 33.1688Z" fill="url(#paint0_linear_6_5307)"/>
<defs>
<linearGradient id="paint0_linear_6_5307" x1="12.6748" y1="349.79" x2="353.074" y2="73.7403" gradientUnits="userSpaceOnUse">
<stop stop-color="#50433C"/>
<stop offset="1" stop-color="#FFFCBA"/>
</linearGradient>
</defs>
</svg>
