<svg width="1572" height="869" viewBox="0 0 1572 869" fill="none" xmlns="http://www.w3.org/2000/svg">
<path d="M1202.91 854.5C1195.71 850.9 1207.91 804.667 1214.91 782L1281.41 133.5C1337.08 113.167 1452.91 71.3 1470.91 66.5C1488.91 61.7 1545.41 51.8333 1571.41 47.5C1567.91 49 1552.41 74 1549.41 86C1546.41 98 1552.41 96.5 1552.41 101.5C1552.41 106.5 1551.41 115.5 1547.91 133.5C1545.11 147.9 1546.74 213.5 1547.91 244.5C1542.41 247.5 1511.91 253.5 1509.91 256.5C1508.31 258.9 1535.58 260.833 1549.41 261.5C1541.41 327.5 1541.08 400.667 1541.91 429C1538.41 432.5 1488.41 449 1507.91 445.5C1523.51 442.7 1539.41 439 1545.41 437.5C1541.41 450.5 1541.41 575 1541.91 579.5C1542.41 584 1554.41 584.5 1562.41 588.5C1568.81 591.7 1568.41 615.167 1567.41 626.5C1561.91 649 1562.41 731.5 1562.41 737C1562.41 742.5 1546.91 746 1545.41 749.5C1543.91 753 1561.91 759.5 1562.41 765C1562.81 769.4 1559.24 790.5 1557.41 800.5C1505.91 810 1484.91 833.5 1478.91 838C1472.91 842.5 1462.91 847 1439.91 858.5C1416.91 870 1375.41 866.5 1361.91 866.5C1348.41 866.5 1339.91 870 1304.41 866.5C1268.91 863 1211.91 859 1202.91 854.5Z" fill="#B8A384"/>
<path d="M1201.05 836.185C1204.35 820.983 1208.62 781.845 1210.34 764.176C1286.95 751.841 1440.47 732.872 1441.71 755.675C1443.26 784.179 1436.03 803.181 1403.5 813.182C1370.96 823.184 1357.02 808.682 1292.46 820.683C1240.81 830.285 1212.75 845.353 1205.18 851.687C1202.42 852.854 1197.74 851.387 1201.05 836.185Z" fill="#998363"/>
<path d="M442.657 39C432.257 36.2 409.99 25.5 400.157 20.5C366.324 271.333 293.699 773.1 298.499 789.5C303.299 805.9 343.99 813.333 360.657 813C412.657 806 450.499 808.5 468.499 807.5C486.499 806.5 554.499 807 566.499 807.5C578.499 808 668.016 807.5 711.999 807.5C757.999 807.5 744.999 807 839.499 811C933.999 815 890.499 813.5 1005 811C1119.5 808.5 1110.5 812 1154.5 807.5C1198.5 803 1217 790.5 1278 789.5C1339 788.5 1375.66 765.5 1403.66 756.5C1426.06 749.3 1437.83 753.5 1442 756.5C1445.67 707 1455.66 605.3 1457.66 594.5C1460.16 581 1455.16 502.5 1452.66 468.5C1450.16 434.5 1451.66 412 1452.66 398.5C1453.66 385 1457.16 280.5 1457.66 264C1458.16 247.5 1458.16 232.5 1474.66 155.5C1487.86 93.9 1485.49 51.5 1482.66 38C1476.26 22.8 1455.66 17.6667 1446.16 17C1390.66 7.5 1393.66 20.5 1361.66 21.5C1329.66 22.5 1348.16 26 1319.16 26.5C1290.16 27 1212.16 16 1171.66 17C1131.16 18 1055.16 0 1007.16 0C959.157 0 906.657 12 871.657 15.5C836.657 19 739.657 41.5 714.157 46.5C688.657 51.5 633.657 51 602.657 46.5C571.657 42 548.157 47 532.157 46.5C516.157 46 455.657 42.5 442.657 39Z" fill="#ECDDC7"/>
<path d="M298.409 786C295.209 774.8 307.5 670.5 311 649C337.5 579.5 402.909 649.5 403.909 669C404.909 688.5 395.909 712 348.409 735.5C310.409 754.3 299.242 777 298.409 786Z" fill="#927C5A"/>
<path d="M1.21251 20.8512C3.42523 14.0568 15.3773 5.69701 21.0767 2.36642C295.198 67.8129 418.317 -41.0979 424.854 20.8514C428.123 51.8259 429.883 140.253 424.854 171.227C419.825 202.202 416.808 274.142 416.054 304.118C415.299 334.093 413.79 371.562 411.527 444.502C409.717 502.854 416.143 613.436 419.16 664.228C419.076 663.395 416.974 696.333 413.791 690.394C380.264 627.84 50.2545 702.281 27.3626 706.819C6.99557 710.857 8.00135 645.835 8.00135 645.835C8.00135 645.835 23.1098 635.15 0.206556 590.882C-1.87943 586.85 12.5274 549.916 12.2759 548.417C12.0245 546.918 8.00135 550.915 6.99557 549.916C5.98979 548.917 8.00135 545.919 8.00135 514.445C8.00135 482.971 19.0649 482.971 21.0767 477.975C23.0884 472.979 16.0476 470.481 11.773 468.483C8.35337 466.884 25.2672 458.491 34.1516 454.494C24.7643 456.326 6.3921 458.89 8.00135 454.494C10.0129 448.999 9.76146 418.024 9.76146 400.539C9.76146 383.053 13.7846 372.062 16.0476 364.568C18.3106 357.074 9.76146 366.566 8.00135 364.568C6.24123 362.57 8.00135 356.075 8.00135 348.082C8.00135 340.088 5.98979 349.58 3.72678 348.082C1.46378 346.583 3.47534 340.588 8.00135 305.117C12.5274 269.646 8.00135 226.182 9.76146 220.187C11.5216 214.192 25.6025 215.191 27.3626 207.198C29.1227 199.204 13.7846 201.702 11.773 198.705C9.76147 195.707 10.0129 92.792 9.76146 82.3006C9.51002 71.8093 13.7846 71.8093 13.7846 67.8126C13.7846 63.8159 6.49268 63.3163 8.00135 59.8191C9.20828 57.0214 29.2905 45.6641 39.1807 40.3352C36.6662 29.3442 -1.55338 29.3442 1.21251 20.8512Z" fill="#E1D0B6"/>
<path d="M943.371 301C947.771 297.4 962.205 293.167 968.871 291.5L1013.37 297C1019.87 297.333 1033.37 298 1035.37 298C1037.37 298 1043.2 302.333 1045.87 304.5C1035.37 319 1017.37 327.5 1013.37 328.5C1010.17 329.3 989.038 328.167 978.871 327.5C945.871 328.5 928.871 324.5 930.371 321.5C931.571 319.1 938.538 311.833 941.871 308.5L943.371 301Z" fill="#594632"/>
<path d="M943.371 293C947.771 289.4 962.205 285.167 968.871 283.5L1013.37 289C1019.87 289.333 1033.37 290 1035.37 290C1037.37 290 1043.2 294.333 1045.87 296.5C1035.37 311 1017.37 319.5 1013.37 320.5C1010.17 321.3 989.038 320.167 978.871 319.5C945.871 320.5 928.871 316.5 930.371 313.5C931.571 311.1 938.538 303.833 941.871 300.5L943.371 293Z" fill="#D0B8A1"/>
<path d="M836.871 269C840.071 265.8 853.871 260 860.371 257.5L902.371 256L918.371 259C920.371 263.8 916.871 267.667 914.871 269C919.271 272.2 921.704 278.333 922.371 281C916.771 287.8 904.371 289.5 898.871 289.5L863.371 288L855.371 278C847.871 276.333 833.671 272.2 836.871 269Z" fill="#594632"/>
<path d="M836.871 261C840.071 257.8 853.871 252 860.371 249.5L902.371 248L918.371 251C920.371 255.8 916.871 259.667 914.871 261C919.271 264.2 921.704 270.333 922.371 273C916.771 279.8 904.371 281.5 898.871 281.5L863.371 280L855.371 270C847.871 268.333 833.671 264.2 836.871 261Z" fill="#D0B8A1"/>
<path d="M844.371 183.5C849.571 179.1 864.537 174 871.371 172L912.371 183C922.204 185.833 942.671 192.4 945.871 196C949.071 199.6 947.204 202.833 945.871 204C950.371 206 953.371 218.5 949.371 223C946.171 226.6 933.371 221.5 927.371 218.5C923.371 217.833 914.371 215.7 910.371 212.5C906.371 209.3 886.704 211.167 877.371 212.5C867.871 212.667 848.771 212.4 848.371 210C847.971 207.6 851.537 196.667 853.371 191.5C848.204 190.667 839.171 187.9 844.371 183.5Z" fill="#594632"/>
<path d="M844.371 175.5C849.571 171.1 864.537 166 871.371 164L912.371 175C922.204 177.833 942.671 184.4 945.871 188C949.071 191.6 947.204 194.833 945.871 196C950.371 198 953.371 210.5 949.371 215C946.171 218.6 933.371 213.5 927.371 210.5C923.371 209.833 914.371 207.7 910.371 204.5C906.371 201.3 886.704 203.167 877.371 204.5C867.871 204.667 848.771 204.4 848.371 202C847.971 199.6 851.537 188.667 853.371 183.5C848.204 182.667 839.171 179.9 844.371 175.5Z" fill="#D0B8A1"/>
<path d="M1288.11 558.58V571.64L1277.87 560.76L1277.49 560.24L1277.55 560.88V569.42H1278.99V571H1274.15V569.42H1275.89V558.58H1274.15V557H1276.47L1286.13 567.46L1286.51 567.98L1286.45 567.34V558.58H1285.01V557H1289.85V558.58H1288.11Z" fill="#594632"/>
<path d="M1368.01 654H1357.99V652.42H1359.11V641.58H1357.99V640H1367.73V643.08H1366.15V641.58H1360.77V646.16H1366.95V647.74H1360.77V652.42H1366.43V650.92H1368.01V654Z" fill="#594632"/>
<path d="M1285.19 737.12C1284.8 737.453 1284.35 737.713 1283.85 737.9C1283.34 738.073 1282.81 738.16 1282.25 738.16C1281.74 738.16 1281.25 738.107 1280.77 738C1280.29 737.88 1279.85 737.727 1279.45 737.54C1279.05 737.353 1278.69 737.14 1278.37 736.9C1278.06 736.66 1277.82 736.407 1277.65 736.14V733.82H1279.23V735.6C1279.57 735.867 1279.99 736.1 1280.47 736.3C1280.95 736.487 1281.49 736.58 1282.09 736.58C1282.43 736.58 1282.77 736.533 1283.09 736.44C1283.41 736.333 1283.69 736.187 1283.95 736C1284.19 735.8 1284.38 735.553 1284.53 735.26C1284.67 734.967 1284.75 734.627 1284.75 734.24C1284.75 734 1284.73 733.76 1284.69 733.52C1284.66 733.28 1284.59 733.073 1284.49 732.9C1284.31 732.62 1284.11 732.4 1283.87 732.24C1283.64 732.067 1283.37 731.907 1283.07 731.76C1282.59 731.56 1282.07 731.387 1281.51 731.24C1280.95 731.093 1280.43 730.893 1279.95 730.64C1279.45 730.387 1279.04 730.033 1278.71 729.58C1278.39 729.127 1278.22 728.487 1278.21 727.66C1278.19 727.22 1278.25 726.78 1278.39 726.34C1278.52 725.9 1278.74 725.5 1279.05 725.14C1279.35 724.78 1279.76 724.487 1280.27 724.26C1280.77 724.033 1281.39 723.92 1282.13 723.92C1282.37 723.92 1282.63 723.933 1282.91 723.96C1283.19 723.987 1283.48 724.04 1283.79 724.12C1284.09 724.2 1284.41 724.32 1284.73 724.48C1285.06 724.64 1285.39 724.853 1285.71 725.12V727.08H1284.13V725.9C1283.87 725.793 1283.58 725.7 1283.25 725.62C1282.91 725.54 1282.55 725.5 1282.15 725.5C1281.75 725.5 1281.4 725.567 1281.11 725.7C1280.81 725.82 1280.57 725.987 1280.39 726.2C1280.21 726.4 1280.08 726.633 1279.99 726.9C1279.91 727.153 1279.87 727.427 1279.87 727.72C1279.87 728.12 1279.96 728.447 1280.15 728.7C1280.33 728.94 1280.58 729.147 1280.89 729.32C1281.37 729.573 1281.94 729.8 1282.61 730C1283.27 730.187 1283.91 730.427 1284.53 730.72C1285.09 730.987 1285.54 731.4 1285.89 731.96C1286.23 732.52 1286.41 733.287 1286.41 734.26C1286.41 734.86 1286.29 735.4 1286.07 735.88C1285.85 736.36 1285.56 736.773 1285.19 737.12Z" fill="#594632"/>
<path d="M1196.14 650.16C1195.8 650.92 1195.46 651.68 1195.14 652.44C1194.82 653.187 1194.51 653.92 1194.2 654.64C1193.28 652.44 1192.36 650.267 1191.42 648.12C1190.5 645.96 1189.58 643.78 1188.66 641.58H1186.92V640H1191.76V641.58H1190.32C1190.95 643.033 1191.56 644.487 1192.16 645.94C1192.78 647.393 1193.4 648.847 1194.02 650.3L1194.2 650.96C1194.36 650.493 1194.58 649.933 1194.84 649.28C1195.11 648.613 1195.38 647.98 1195.64 647.38C1195.9 646.793 1196.14 646.207 1196.38 645.62C1196.62 645.033 1196.86 644.453 1197.1 643.88C1196.94 643.493 1196.78 643.113 1196.6 642.74C1196.44 642.353 1196.28 641.967 1196.12 641.58H1194.28V640H1199.12V641.58H1197.78C1198.41 643.033 1199.02 644.487 1199.62 645.94C1200.24 647.393 1200.86 648.847 1201.48 650.3L1201.66 650.96L1201.84 650.3C1202.47 648.847 1203.08 647.4 1203.68 645.96C1204.3 644.507 1204.91 643.047 1205.52 641.58H1204.24V640H1209.08V641.58H1207.2C1206.28 643.78 1205.36 645.96 1204.42 648.12C1203.5 650.267 1202.58 652.44 1201.66 654.64L1198.12 646.3L1197.92 645.6C1197.74 646.213 1197.48 646.94 1197.14 647.78C1196.82 648.607 1196.49 649.4 1196.14 650.16Z" fill="#594632"/>
<circle cx="1281.5" cy="649.5" r="43.572" stroke="#715941" stroke-width="3.85593"/>
<circle cx="1279.5" cy="650.5" r="33" stroke="#715941"/>
<path d="M1282 649V577L1266 636.5L1282 649Z" fill="#594632"/>
<path d="M1282 649V577L1297.5 636.5L1282 649Z" fill="#DAC3A1"/>
<path d="M1282 649L1354 649L1294.5 633L1282 649Z" fill="#594632"/>
<path d="M1282 649L1354 649L1294.5 664.5L1282 649Z" fill="#DAC3A1"/>
<path d="M1282 649.5L1210 649.5L1269.5 665.5L1282 649.5Z" fill="#594632"/>
<path d="M1282 649.5L1210 649.5L1269.5 634L1282 649.5Z" fill="#DAC3A1"/>
<path d="M1281.5 649V721L1297.5 661.5L1281.5 649Z" fill="#594632"/>
<path d="M1281.5 649V721L1266 661.5L1281.5 649Z" fill="#DAC3A1"/>
<path d="M711 497.5C714.6 493.1 741.5 483.333 754.5 479C777.5 485.167 827.6 496.6 844 493C860.4 489.4 893.834 484.167 908.5 482C921.5 492.5 948.1 514.6 950.5 519C952.9 523.4 951.5 536.5 950.5 542.5L965 551V570C983.334 583 1020.7 609.5 1023.5 611.5C1027 614 1034.5 637.5 1031 640.5C1027.5 643.5 1008.5 643.5 1002.5 643.5C997.701 643.5 968.5 663.167 954.5 673L965 684C963.834 689 960.9 699 958.5 699H900L833 719L738 730C727.167 727.833 703.8 722.6 697 719C688.501 714.5 652.5 720 646.5 719C640.5 718 594.5 689 592.5 684C590.9 680 596.167 661.333 599 652.5C595.5 649.667 588 643.9 586 643.5C584 643.1 581.167 632.333 580 627L611.5 588.5L671 559.5C668.167 552.5 663.4 537.4 667 533C670.6 528.6 694.167 518.167 705.5 513.5C705.834 510 707.4 501.9 711 497.5Z" fill="#715941" fill-opacity="0.67"/>
<path d="M711 482.5C714.6 478.1 741.5 468.333 754.5 464C777.5 470.167 827.6 481.6 844 478C860.4 474.4 893.834 469.167 908.5 467C921.5 477.5 948.1 499.6 950.5 504C952.9 508.4 951.5 521.5 950.5 527.5L965 536V555C983.334 568 1020.7 594.5 1023.5 596.5C1027 599 1034.5 622.5 1031 625.5C1027.5 628.5 1008.5 628.5 1002.5 628.5C997.701 628.5 968.5 648.167 954.5 658L965 669C963.834 674 960.9 684 958.5 684H900L833 704L738 715C727.167 712.833 703.8 707.6 697 704C688.501 699.5 652.5 705 646.5 704C640.5 703 594.5 674 592.5 669C590.9 665 596.167 646.333 599 637.5C595.5 634.667 588 628.9 586 628.5C584 628.1 581.167 617.333 580 612L611.5 573.5L671 544.5C668.167 537.5 663.4 522.4 667 518C670.6 513.6 694.167 503.167 705.5 498.5C705.834 495 707.4 486.9 711 482.5Z" fill="#D0B8A1"/>
<path d="M652.804 642.592C658.184 639.006 661.77 639.604 662.891 640.351C668.121 642.592 667.747 645.955 667.747 647.822C667.747 649.69 664.012 653.8 661.397 654.547C658.782 655.294 646.08 647.075 652.804 642.592Z" fill="#B1927A"/>
<path d="M657.429 634.708C658.857 633.804 659.808 633.955 660.106 634.143C661.494 634.708 661.395 635.556 661.395 636.028C661.395 636.499 660.403 637.535 659.709 637.724C659.015 637.912 655.644 635.839 657.429 634.708Z" fill="#B1927A"/>
<path d="M664.153 636.202C665.581 635.298 666.533 635.449 666.83 635.637C668.219 636.202 668.12 637.051 668.12 637.522C668.12 637.993 667.128 639.029 666.434 639.218C665.74 639.406 662.368 637.333 664.153 636.202Z" fill="#B1927A"/>
<path d="M669.383 640.685C670.811 639.781 671.763 639.932 672.06 640.12C673.449 640.685 673.349 641.533 673.349 642.005C673.349 642.476 672.358 643.512 671.664 643.701C670.97 643.889 667.598 641.816 669.383 640.685Z" fill="#B1927A"/>
<path d="M670.13 646.663C671.558 645.758 672.51 645.909 672.808 646.098C674.196 646.663 674.097 647.511 674.097 647.982C674.097 648.453 673.105 649.49 672.411 649.678C671.717 649.867 668.346 647.794 670.13 646.663Z" fill="#B1927A"/>
<path d="M903.804 498.592C909.184 495.006 912.77 495.604 913.891 496.351C919.121 498.592 918.747 501.955 918.747 503.822C918.747 505.69 915.012 509.8 912.397 510.547C909.782 511.294 897.08 503.075 903.804 498.592Z" fill="#B1927A"/>
<path d="M908.429 490.708C909.857 489.804 910.808 489.955 911.106 490.143C912.494 490.708 912.395 491.556 912.395 492.028C912.395 492.499 911.403 493.535 910.709 493.724C910.015 493.912 906.644 491.839 908.429 490.708Z" fill="#B1927A"/>
<path d="M915.153 492.202C916.581 491.298 917.533 491.449 917.83 491.637C919.219 492.202 919.12 493.051 919.12 493.522C919.12 493.993 918.128 495.029 917.434 495.218C916.74 495.406 913.368 493.333 915.153 492.202Z" fill="#B1927A"/>
<path d="M920.383 496.685C921.811 495.781 922.763 495.932 923.06 496.12C924.449 496.685 924.349 497.533 924.349 498.005C924.349 498.476 923.358 499.512 922.664 499.701C921.97 499.889 918.598 497.816 920.383 496.685Z" fill="#B1927A"/>
<path d="M921.13 502.663C922.558 501.758 923.51 501.909 923.808 502.098C925.196 502.663 925.097 503.511 925.097 503.982C925.097 504.453 924.105 505.49 923.411 505.678C922.717 505.867 919.346 503.794 921.13 502.663Z" fill="#B1927A"/>
<path d="M616.349 646.592C621.729 643.006 625.315 643.604 626.436 644.351C631.666 646.592 631.292 649.955 631.292 651.822C631.292 653.69 627.557 657.8 624.941 658.547C622.326 659.294 609.625 651.075 616.349 646.592Z" fill="#B1927A"/>
<path d="M620.974 638.708C622.401 637.804 623.353 637.955 623.651 638.143C625.039 638.708 624.94 639.556 624.94 640.028C624.94 640.499 623.948 641.535 623.254 641.724C622.56 641.912 619.189 639.839 620.974 638.708Z" fill="#B1927A"/>
<path d="M627.698 640.202C629.126 639.298 630.078 639.449 630.375 639.637C631.764 640.202 631.664 641.051 631.664 641.522C631.664 641.993 630.673 643.029 629.979 643.218C629.285 643.406 625.913 641.333 627.698 640.202Z" fill="#B1927A"/>
<path d="M632.928 644.685C634.356 643.781 635.308 643.932 635.605 644.12C636.994 644.685 636.894 645.533 636.894 646.005C636.894 646.476 635.903 647.512 635.209 647.701C634.515 647.889 631.143 645.816 632.928 644.685Z" fill="#B1927A"/>
<path d="M633.675 650.663C635.103 649.758 636.055 649.909 636.352 650.098C637.741 650.663 637.641 651.511 637.641 651.982C637.641 652.453 636.65 653.49 635.956 653.678C635.262 653.867 631.89 651.794 633.675 650.663Z" fill="#B1927A"/>
<path d="M867.349 502.592C872.729 499.006 876.315 499.604 877.436 500.351C882.666 502.592 882.292 505.955 882.292 507.822C882.292 509.69 878.557 513.8 875.941 514.547C873.326 515.294 860.625 507.075 867.349 502.592Z" fill="#B1927A"/>
<path d="M871.974 494.708C873.401 493.804 874.353 493.955 874.651 494.143C876.039 494.708 875.94 495.556 875.94 496.028C875.94 496.499 874.948 497.535 874.254 497.724C873.56 497.912 870.189 495.839 871.974 494.708Z" fill="#B1927A"/>
<path d="M878.698 496.202C880.126 495.298 881.078 495.449 881.375 495.637C882.764 496.202 882.664 497.051 882.664 497.522C882.664 497.993 881.673 499.029 880.979 499.218C880.285 499.406 876.913 497.333 878.698 496.202Z" fill="#B1927A"/>
<path d="M883.928 500.685C885.356 499.781 886.308 499.932 886.605 500.12C887.994 500.685 887.894 501.533 887.894 502.005C887.894 502.476 886.903 503.512 886.209 503.701C885.515 503.889 882.143 501.816 883.928 500.685Z" fill="#B1927A"/>
<path d="M884.675 506.663C886.103 505.758 887.055 505.909 887.352 506.098C888.741 506.663 888.641 507.511 888.641 507.982C888.641 508.453 887.65 509.49 886.956 509.678C886.262 509.867 882.89 507.794 884.675 506.663Z" fill="#B1927A"/>
<path d="M634.349 674.592C639.729 671.006 643.315 671.604 644.436 672.351C649.666 674.592 649.292 677.955 649.292 679.822C649.292 681.69 645.557 685.8 642.941 686.547C640.326 687.294 627.625 679.075 634.349 674.592Z" fill="#B1927A"/>
<path d="M638.974 666.708C640.401 665.804 641.353 665.955 641.651 666.143C643.039 666.708 642.94 667.556 642.94 668.028C642.94 668.499 641.948 669.535 641.254 669.724C640.56 669.912 637.189 667.839 638.974 666.708Z" fill="#B1927A"/>
<path d="M645.698 668.202C647.126 667.298 648.078 667.449 648.375 667.637C649.764 668.202 649.664 669.051 649.664 669.522C649.664 669.993 648.673 671.029 647.979 671.218C647.285 671.406 643.913 669.333 645.698 668.202Z" fill="#B1927A"/>
<path d="M650.928 672.685C652.356 671.781 653.308 671.932 653.605 672.12C654.994 672.685 654.894 673.533 654.894 674.005C654.894 674.476 653.903 675.512 653.209 675.701C652.515 675.889 649.143 673.816 650.928 672.685Z" fill="#B1927A"/>
<path d="M651.675 678.663C653.103 677.758 654.055 677.909 654.352 678.098C655.741 678.663 655.641 679.511 655.641 679.982C655.641 680.453 654.65 681.49 653.956 681.678C653.262 681.867 649.89 679.794 651.675 678.663Z" fill="#B1927A"/>
<path d="M885.349 530.592C890.729 527.006 894.315 527.604 895.436 528.351C900.666 530.592 900.292 533.955 900.292 535.822C900.292 537.69 896.557 541.8 893.941 542.547C891.326 543.294 878.625 535.075 885.349 530.592Z" fill="#B1927A"/>
<path d="M889.974 522.708C891.401 521.804 892.353 521.955 892.651 522.143C894.039 522.708 893.94 523.556 893.94 524.028C893.94 524.499 892.948 525.535 892.254 525.724C891.56 525.912 888.189 523.839 889.974 522.708Z" fill="#B1927A"/>
<path d="M896.698 524.202C898.126 523.298 899.078 523.449 899.375 523.637C900.764 524.202 900.664 525.051 900.664 525.522C900.664 525.993 899.673 527.029 898.979 527.218C898.285 527.406 894.913 525.333 896.698 524.202Z" fill="#B1927A"/>
<path d="M901.928 528.685C903.356 527.781 904.308 527.932 904.605 528.12C905.994 528.685 905.894 529.533 905.894 530.005C905.894 530.476 904.903 531.512 904.209 531.701C903.515 531.889 900.143 529.816 901.928 528.685Z" fill="#B1927A"/>
<path d="M902.675 534.663C904.103 533.758 905.055 533.909 905.352 534.098C906.741 534.663 906.641 535.511 906.641 535.982C906.641 536.453 905.65 537.49 904.956 537.678C904.262 537.867 900.89 535.794 902.675 534.663Z" fill="#B1927A"/>
<path d="M485.409 335.517C489.409 329.117 501.409 309.517 506.909 300.517L512.909 274.517C521.409 270.017 538.009 260.417 536.409 258.017C534.409 255.017 543.409 223.017 543.909 220.017C544.309 217.617 553.075 215.017 557.409 214.017C562.409 210.017 573.209 201.317 576.409 198.517C580.409 195.017 582.909 191.017 594.409 190.517C605.909 190.017 627.909 180.517 631.909 180.517C635.909 180.517 650.909 169.517 654.909 170.017C658.109 170.417 667.242 174.183 671.409 176.017C685.909 177.017 715.209 179.317 716.409 180.517C717.609 181.717 722.242 191.35 724.409 196.017L745.409 202.017C759.909 210.85 788.909 229.217 788.909 232.017C788.909 235.517 786.409 253.517 786.409 256.017C786.409 258.517 794.409 270.517 793.909 274.517C793.409 278.517 785.909 313.517 786.409 315.517C786.909 317.517 814.409 327.017 818.909 332.017C823.409 337.017 829.409 372.017 823.409 367.517C818.609 363.917 808.075 363.017 803.409 363.017C802.609 366.617 795.409 374.517 791.909 378.017L775.409 376.517C772.409 376.517 766.909 392.017 760.909 392.017C754.909 392.017 747.909 393.517 738.909 392.017C729.909 390.517 709.409 384.517 705.409 384.517C701.409 384.517 679.909 384.017 677.409 384.517C675.409 384.917 672.575 397.017 671.409 403.017C663.909 404.517 647.909 407.417 643.909 407.017C639.909 406.617 617.575 400.517 606.909 397.517C592.075 398.517 561.409 399.917 557.409 397.517C552.409 394.517 543.409 380.017 538.409 376.517C534.409 373.717 522.742 369.35 517.409 367.517C509.809 369.917 501.909 371.517 498.909 372.017C490.909 369.517 492.409 354.017 489.909 350.017C487.909 346.817 486.075 339.017 485.409 335.517Z" fill="#715941" fill-opacity="0.67"/>
<path d="M485.409 322.517C489.409 316.117 501.409 296.517 506.909 287.517L512.909 261.517C521.409 257.017 538.009 247.417 536.409 245.017C534.409 242.017 543.409 210.017 543.909 207.017C544.309 204.617 553.075 202.017 557.409 201.017C562.409 197.017 573.209 188.317 576.409 185.517C580.409 182.017 582.909 178.017 594.409 177.517C605.909 177.017 627.909 167.517 631.909 167.517C635.909 167.517 650.909 156.517 654.909 157.017C658.109 157.417 667.242 161.183 671.409 163.017C685.909 164.017 715.209 166.317 716.409 167.517C717.609 168.717 722.242 178.35 724.409 183.017L745.409 189.017C759.909 197.85 788.909 216.217 788.909 219.017C788.909 222.517 786.409 240.517 786.409 243.017C786.409 245.517 794.409 257.517 793.909 261.517C793.409 265.517 785.909 300.517 786.409 302.517C786.909 304.517 814.409 314.017 818.909 319.017C823.409 324.017 829.409 359.017 823.409 354.517C818.609 350.917 808.075 350.017 803.409 350.017C802.609 353.617 795.409 361.517 791.909 365.017L775.409 363.517C772.409 363.517 766.909 379.017 760.909 379.017C754.909 379.017 747.909 380.517 738.909 379.017C729.909 377.517 709.409 371.517 705.409 371.517C701.409 371.517 679.909 371.017 677.409 371.517C675.409 371.917 672.575 384.017 671.409 390.017C663.909 391.517 647.909 394.417 643.909 394.017C639.909 393.617 617.575 387.517 606.909 384.517C592.075 385.517 561.409 386.917 557.409 384.517C552.409 381.517 543.409 367.017 538.409 363.517C534.409 360.717 522.742 356.35 517.409 354.517C509.809 356.917 501.909 358.517 498.909 359.017C490.909 356.517 492.409 341.017 489.909 337.017C487.909 333.817 486.075 326.017 485.409 322.517Z" fill="#D0B8A1"/>
<path d="M718.401 154.928C723.566 167.598 724.582 201.691 724.88 216.597L734.432 216.445C730.442 180.262 732.792 160.065 734.466 154.489L718.401 154.928Z" fill="#B69175"/>
<path d="M696.367 121.921C716.227 121.921 723.556 130.924 726.068 137.168C732.452 121.992 749.711 119.228 756.213 118C748.056 120.788 743.948 129.617 742.914 133.683C752.489 132.638 759.611 137.894 761.976 140.653C754.883 139.259 743.653 141.234 738.924 142.396C753.464 143.79 763.306 152.851 766.409 157.208C761.798 153.374 747.642 152.997 741.141 153.287C747.17 156.424 749.859 160.403 750.45 162C744.421 158.515 733.457 159.677 728.728 160.693C723.054 158.253 708.041 160.548 701.244 162C703.726 159.56 711.144 155.175 714.543 153.287C707.45 150.15 688.831 154.594 680.409 157.208C687.501 146.404 701.392 142.832 707.45 142.396C701.776 137.517 689.127 136.878 683.512 137.168C693.087 131.941 705.233 133.538 710.11 134.99C704.79 126.974 698.732 122.937 696.367 121.921Z" fill="#594632"/>
<ellipse cx="717.409" cy="160.5" rx="7" ry="8.5" transform="rotate(4.14281 717.409 160.5)" fill="#DDB88C"/>
<ellipse cx="726.909" cy="162.5" rx="8.5" ry="10.5" fill="#BF9769"/>
<ellipse cx="736.367" cy="160.02" rx="7" ry="8.5" transform="rotate(-14.9691 736.367 160.02)" fill="#DDB88C"/>
<path d="M750.521 173.002C754.098 186.208 750.937 220.169 749.411 235L758.909 236.017C759.374 199.618 764.175 179.86 766.518 174.53L750.521 173.002Z" fill="#B69175"/>
<path d="M792.324 145.367C772.577 143.249 764.33 151.42 761.167 157.361C756.438 141.59 739.572 137.002 733.238 135.088C741.051 138.73 744.194 147.946 744.789 152.099C735.38 150.039 727.737 154.506 725.092 156.997C732.293 156.368 743.249 159.529 747.827 161.188C733.221 161.024 722.47 168.984 718.92 172.985C723.912 169.665 738.028 170.799 744.462 171.781C738.133 174.257 735.034 177.926 734.276 179.451C740.643 176.629 751.42 178.953 756.014 180.468C761.916 178.647 776.598 182.529 783.202 184.698C780.994 182.007 774.086 176.856 770.908 174.617C778.295 172.254 796.333 178.658 804.429 182.155C798.529 170.656 785.099 165.623 779.122 164.544C785.284 160.297 797.929 161.011 803.481 161.898C794.517 155.679 782.27 155.973 777.267 156.897C783.411 149.494 789.865 146.126 792.324 145.367Z" fill="#715941"/>
<ellipse cx="753.004" cy="180.5" rx="7" ry="8.5" transform="rotate(4.14281 753.004 180.5)" fill="#DDB88C"/>
<ellipse cx="763.367" cy="180.02" rx="7" ry="8.5" transform="rotate(-14.9691 763.367 180.02)" fill="#BF9769"/>
<path d="M522.498 278.002C518.921 291.208 522.081 325.169 523.608 340L514.11 341.017C513.645 304.618 508.843 284.86 506.5 279.53L522.498 278.002Z" fill="#B69175"/>
<path d="M480.695 250.366C500.441 248.249 508.689 256.419 511.852 262.36C516.581 246.59 533.447 242.001 539.781 240.087C531.968 243.729 528.825 252.946 528.23 257.099C537.639 255.038 545.281 259.506 547.926 261.997C540.725 261.367 529.769 264.528 525.192 266.187C539.798 266.023 550.549 273.984 554.099 277.984C549.106 274.664 534.991 275.798 528.557 276.78C534.886 279.256 537.984 282.926 538.742 284.451C532.376 281.628 521.598 283.952 517.005 285.467C511.103 283.647 496.42 287.529 489.816 289.697C492.025 287.007 498.933 281.856 502.111 279.616C494.724 277.254 476.685 283.657 468.589 287.154C474.49 275.655 487.92 270.622 493.897 269.543C487.735 265.297 475.09 266.01 469.538 266.898C478.501 260.679 490.749 260.972 495.752 261.896C489.608 254.493 483.154 251.125 480.695 250.366Z" fill="#715941"/>
<ellipse cx="7" cy="8.5" rx="7" ry="8.5" transform="matrix(-0.997387 0.0722427 0.0722427 0.997387 526.382 276.517)" fill="#DDB88C"/>
<ellipse cx="7" cy="8.5" rx="7" ry="8.5" transform="matrix(-0.966065 -0.258298 -0.258298 0.966065 518.61 278.616)" fill="#BF9769"/>
<path d="M747.409 232C744.609 231.6 743.909 234.5 743.909 236C742.409 239.59 757.909 238.5 760.409 239C762.909 239.5 761.909 238 762.409 235C762.909 232 760.909 233.5 757.909 232C754.909 230.5 754.409 235 753.409 233.5C752.409 232 750.909 232.5 747.409 232Z" fill="#C5AD96"/>
<path d="M513.011 337.311C510.211 336.911 509.511 339.811 509.511 341.311C508.011 344.9 523.511 343.811 526.011 344.311C528.511 344.811 527.511 343.311 528.011 340.311C528.511 337.311 526.511 338.811 523.511 337.311C520.511 335.811 520.011 340.311 519.011 338.811C518.011 337.311 516.511 337.811 513.011 337.311Z" fill="#C5AD96"/>
<path d="M723.011 212.311C720.211 211.911 719.511 214.811 719.511 216.311C718.011 219.9 733.511 218.811 736.011 219.311C738.511 219.811 737.511 218.311 738.011 215.311C738.511 212.311 736.511 213.811 733.511 212.311C730.511 210.811 730.011 215.311 729.011 213.811C728.011 212.311 726.511 212.811 723.011 212.311Z" fill="#C5AD96"/>
<path fill-rule="evenodd" clip-rule="evenodd" d="M570.519 495.422C571.243 497.651 571.655 503.197 567.516 507.544C565.724 509.425 566.873 509.15 568.991 507.632C575.624 501.471 578.81 497.727 578.104 491.875C575.509 491.754 572.726 492.912 570.519 495.422Z" fill="#594632"/>
<path d="M568.991 507.632C572.992 504.765 580.453 497.463 578.104 491.875C578.81 497.727 575.624 501.471 568.991 507.632Z" fill="#C2A28A"/>
<path d="M564.469 503.667C581.373 497.505 587.834 493.913 593.521 490.785C598.403 488.1 599.207 486.133 598.948 484.324C595.847 485.702 593.779 486.133 591.194 486.65C590.463 486.796 588.917 486.732 587.452 486.671C586.229 486.62 585.062 486.571 584.474 486.65C580.339 491.527 572.669 498.069 556.356 504.042C541.397 509.519 526.559 514.952 524.646 519.812C528.951 514.071 553.323 507.73 564.469 503.667Z" fill="#CBB7A7"/>
<path d="M557.853 478.896C553.976 479.93 550.357 481.298 544.378 485.011C541.364 486.884 532.245 494.8 523.994 503.22C542.364 487.506 552.425 482.773 558.628 480.188C560.986 479.304 562.251 478.672 563.622 477.987C564.656 477.471 565.749 476.925 567.416 476.218C563.588 477.186 560.129 477.997 557.853 478.896Z" fill="#C2A28A"/>
<path fill-rule="evenodd" clip-rule="evenodd" d="M587.071 480.347C580.479 474.606 573.32 474.726 567.416 476.218C565.749 476.925 564.656 477.471 563.622 477.987C562.251 478.672 560.986 479.304 558.628 480.188C552.425 482.773 542.364 487.506 523.994 503.22C518.189 509.144 512.814 515.317 510.295 519.812H524.646C526.559 514.952 541.397 509.519 556.356 504.042C572.669 498.069 580.339 491.527 584.474 486.65C585.062 486.571 586.229 486.62 587.452 486.671C588.917 486.732 590.463 486.796 591.194 486.65C593.779 486.133 595.847 485.702 598.948 484.324C598.69 482.514 593.521 480.347 587.071 480.347Z" fill="#B1927A"/>
<path d="M537.92 470.302C543.374 474.607 544.498 481.902 544.378 485.011C550.357 481.298 553.976 479.93 557.853 478.896C553.547 468.851 531.104 464.92 537.92 470.302Z" fill="#594632"/>
<circle cx="584.474" cy="486.391" r="1.29232" fill="#36291C"/>
<path d="M585.442 486.367C585.335 486.462 585 486.259 584.905 486.153C584.81 486.046 584.819 485.883 584.926 485.788C585.032 485.693 585.196 485.702 585.291 485.809C585.386 485.916 585.548 486.272 585.442 486.367Z" fill="white"/>
<path fill-rule="evenodd" clip-rule="evenodd" d="M557.079 503.693C557.803 505.922 558.215 511.468 554.076 515.815C552.284 517.695 553.433 517.421 555.551 515.903C562.184 509.741 565.37 505.997 564.664 500.146C562.069 500.025 559.286 501.183 557.079 503.693Z" fill="#594632"/>
<path d="M555.551 515.903C559.552 513.036 567.013 505.734 564.664 500.146C565.37 505.997 562.184 509.741 555.551 515.903Z" fill="#C2A28A"/>
<path d="M499.904 561.882C503.485 558.918 513.536 550.102 525.094 538.545C529.357 534.281 534.408 528.516 534.074 526.954C531.348 529.541 525.588 533.321 521.409 533.69C508.637 542.496 503.363 549.179 494.012 561.151C496.341 561.378 498.374 561.642 499.904 561.882Z" fill="#CBB7A7"/>
<path d="M474.886 553.334L471.526 561.882C473.542 561.344 474.238 560.999 476.695 560.8C480.238 547.613 490.394 534.574 495.563 528.914C489.635 532.314 482.898 538.084 480.055 542.22C479.538 542.995 478.246 545.838 477.212 547.906C476.511 549.308 475.75 551.39 474.886 553.334Z" fill="#C2A28A"/>
<path fill-rule="evenodd" clip-rule="evenodd" d="M523.638 526.954C513.991 521.614 503.794 524.193 495.563 528.914C490.394 534.574 480.238 547.613 476.695 560.8C482.44 560.332 488.93 560.656 494.012 561.151C503.363 549.179 508.637 542.496 521.409 533.69C525.588 533.321 531.348 529.541 534.074 526.954C533.503 524.282 527.69 525.941 523.638 526.954Z" fill="#B1927A"/>
<path d="M457.676 554.473C465.677 551.51 472.293 552.346 474.886 553.334C475.75 551.39 476.511 549.308 477.212 547.906C478.246 545.838 479.538 542.995 480.055 542.22C464.497 541.479 447.674 558.178 457.676 554.473Z" fill="#594632"/>
<path d="M500.359 572.371C501.537 564.507 498.418 559.238 496.711 557.587L503.68 549.082C514.265 560.048 498.887 582.201 500.359 572.371Z" fill="#594632"/>
<circle cx="521.151" cy="533.174" r="1.63124" transform="rotate(-18.705 521.151 533.174)" fill="#36291C"/>
<path d="M522.297 532.753C522.208 532.91 521.726 532.803 521.569 532.714C521.412 532.625 521.357 532.426 521.446 532.27C521.535 532.113 521.735 532.058 521.891 532.147C522.048 532.236 522.386 532.596 522.297 532.753Z" fill="white"/>
<path d="M497.363 465.433C503.498 462.258 513.449 458.404 517.657 456.874C526.579 452.274 527.099 450.096 526.837 448.46C522.85 450.623 520.519 451.231 516.24 451.499C489.882 463.951 481.164 472.839 477.604 492.466C479.951 482.779 489.695 469.402 497.363 465.433Z" fill="#CBB7A7"/>
<path d="M484.22 452.651C479.119 457.501 475.869 464.512 473.866 471.659C479.688 454.395 499.44 442.711 501.149 442.401C501.638 442.127 502.103 441.867 502.542 441.619C499.395 442.296 497.114 443.745 495.144 444.775C489.801 447.419 487.859 449.24 484.592 452.303L484.59 452.305C484.469 452.418 484.345 452.534 484.22 452.651Z" fill="#C2A28A"/>
<path fill-rule="evenodd" clip-rule="evenodd" d="M519.437 446.091C513.707 441.05 507.477 440.556 502.542 441.619C502.103 441.867 501.638 442.127 501.149 442.401C499.44 442.711 479.688 454.395 473.866 471.659C471.336 480.686 470.794 489.931 471.023 495.316C469.386 496.626 466.29 500.072 466.998 503.372C467.706 506.673 466.453 510.46 465.738 511.941C471.22 509.437 475.249 501.602 476.578 497.997C477.261 499.533 480.394 501.346 481.875 502.061C481.593 501.605 481.131 500.141 481.542 497.928C481.952 495.716 479.088 493.365 477.604 492.466C481.164 472.839 489.882 463.951 516.24 451.499C520.519 451.231 522.85 450.623 526.837 448.46C526.527 446.516 522.682 445.996 519.437 446.091Z" fill="#B1927A"/>
<path d="M475.59 446.979C479.773 446.258 483.086 450.46 484.22 452.651C484.345 452.534 484.469 452.418 484.59 452.305L484.592 452.303C487.859 449.24 489.801 447.419 495.144 444.775C482.637 438.053 470.361 447.879 475.59 446.979Z" fill="#594632"/>
<path fill-rule="evenodd" clip-rule="evenodd" d="M493.487 464.383C494.528 466.484 495.744 471.91 492.281 476.813C490.783 478.935 491.879 478.496 493.754 476.686C499.418 469.624 502.025 465.456 500.474 459.77C497.889 460.028 495.304 461.579 493.487 464.383Z" fill="#594632"/>
<path d="M493.754 476.686C497.295 473.266 503.612 464.956 500.474 459.77C502.025 465.456 499.418 469.624 493.754 476.686Z" fill="#C2A28A"/>
<circle cx="516.24" cy="450.206" r="1.29232" fill="#36291C"/>
<path d="M517.207 450.182C517.1 450.277 516.765 450.074 516.67 449.968C516.575 449.861 516.584 449.698 516.691 449.603C516.798 449.508 516.961 449.517 517.056 449.624C517.151 449.731 517.313 450.087 517.207 450.182Z" fill="white"/>
<path d="M416.409 594C422.409 594 435.109 591.4 439.909 583C441.575 586.333 448.409 594 462.409 594" stroke="#C2A28A" stroke-opacity="0.64" stroke-width="5"/>
<path d="M462.409 594C468.409 594 481.109 591.4 485.909 583C487.575 586.333 494.409 594 508.409 594" stroke="#C2A28A" stroke-opacity="0.64" stroke-width="5"/>
<path d="M508.409 594C514.409 594 527.109 591.4 531.909 583C533.575 586.333 540.409 594 554.409 594" stroke="#C2A28A" stroke-opacity="0.64" stroke-width="5"/>
<path d="M1002.41 230C1008.41 230 1021.11 227.4 1025.91 219C1027.58 222.333 1034.41 230 1048.41 230" stroke="#C2A28A" stroke-opacity="0.64" stroke-width="5"/>
<path d="M1048.41 230C1054.41 230 1067.11 227.4 1071.91 219C1073.58 222.333 1080.41 230 1094.41 230" stroke="#C2A28A" stroke-opacity="0.64" stroke-width="5"/>
<path d="M1094.41 230C1100.41 230 1113.11 227.4 1117.91 219C1119.58 222.333 1126.41 230 1140.41 230" stroke="#C2A28A" stroke-opacity="0.64" stroke-width="5"/>
<path d="M446.999 745C452.999 745 465.699 742.4 470.499 734C472.165 737.333 478.999 745 492.999 745" stroke="#C2A28A" stroke-opacity="0.64" stroke-width="5"/>
<path d="M492.999 745C498.999 745 511.699 742.4 516.499 734C518.165 737.333 524.999 745 538.999 745" stroke="#C2A28A" stroke-opacity="0.64" stroke-width="5"/>
<path d="M870.409 375C876.409 375 889.109 372.4 893.909 364C895.575 367.333 902.409 375 916.409 375" stroke="#C2A28A" stroke-opacity="0.64" stroke-width="5"/>
<path d="M916.409 375C922.409 375 935.109 372.4 939.909 364C941.575 367.333 948.409 375 962.409 375" stroke="#C2A28A" stroke-opacity="0.64" stroke-width="5"/>
<path d="M1337.41 534C1343.41 534 1356.11 531.4 1360.91 523C1362.58 526.333 1369.41 534 1383.41 534" stroke="#C2A28A" stroke-opacity="0.64" stroke-width="5"/>
<path d="M1383.41 534C1389.41 534 1402.11 531.4 1406.91 523C1408.58 526.333 1415.41 534 1429.41 534" stroke="#C2A28A" stroke-opacity="0.64" stroke-width="5"/>
<path d="M1369.41 272C1375.41 272 1388.11 269.4 1392.91 261C1394.58 264.333 1401.41 272 1415.41 272" stroke="#C2A28A" stroke-opacity="0.64" stroke-width="5"/>
<path d="M1151.41 577C1157.41 577 1170.11 574.4 1174.91 566C1176.58 569.333 1183.41 577 1197.41 577" stroke="#C2A28A" stroke-opacity="0.64" stroke-width="5"/>
<path d="M591.409 134C597.409 134 610.109 131.4 614.909 123C616.575 126.333 623.409 134 637.409 134" stroke="#C2A28A" stroke-opacity="0.64" stroke-width="5"/>
<path d="M986.409 508C992.409 508 1005.11 505.4 1009.91 497C1011.58 500.333 1018.41 508 1032.41 508" stroke="#C2A28A" stroke-opacity="0.64" stroke-width="5"/>
<path d="M1032.41 508C1038.41 508 1051.11 505.4 1055.91 497C1057.58 500.333 1064.41 508 1078.41 508" stroke="#C2A28A" stroke-opacity="0.64" stroke-width="5"/>
<path d="M637.409 448C643.409 448 656.109 445.4 660.909 437C662.575 440.333 669.409 448 683.409 448" stroke="#C2A28A" stroke-opacity="0.64" stroke-width="5"/>
<path d="M683.409 448C689.409 448 702.109 445.4 706.909 437C708.575 440.333 715.409 448 729.409 448" stroke="#C2A28A" stroke-opacity="0.64" stroke-width="5"/>
<path d="M1130 715C1136 715 1148.7 712.4 1153.5 704C1155.17 707.333 1162 715 1176 715" stroke="#C2A28A" stroke-opacity="0.64" stroke-width="5"/>
<path d="M1176 715C1182 715 1194.7 712.4 1199.5 704C1201.17 707.333 1208 715 1222 715" stroke="#C2A28A" stroke-opacity="0.64" stroke-width="5"/>
<path d="M1215.5 168L1237.5 146L1247.5 154.5L1272.5 172L1287.5 192L1292 229.5C1307 237.333 1337 253.9 1337 257.5C1337 261.1 1331 271.667 1328 276.5L1337 306L1359.5 314C1359 329.667 1357.5 362.4 1355.5 368C1353.5 373.6 1336.33 382.667 1328 386.5C1335.67 389 1351 394.8 1351 398C1351 401.2 1343.67 413 1340 418.5L1345 426V470L1319.5 494.5L1229.5 506L1233.5 519L1206.5 525C1191 522.5 1159.4 516.8 1157 514C1154.6 511.2 1136.67 486.5 1128 474.5C1105.6 468.5 1080 455 1070 449L1111.5 394C1102.33 387.167 1084.2 372.4 1085 368C1085.8 363.6 1114 334.833 1128 321L1134 294L1160 281.5L1166.5 263L1183 210.5L1195.5 205.5L1215.5 168Z" fill="#715941" fill-opacity="0.67"/>
<path d="M1215.5 151L1237.5 129L1247.5 137.5L1272.5 155L1287.5 175L1292 212.5C1307 220.333 1337 236.9 1337 240.5C1337 244.1 1331 254.667 1328 259.5L1337 289L1359.5 297C1359 312.667 1357.5 345.4 1355.5 351C1353.5 356.6 1336.33 365.667 1328 369.5C1335.67 372 1351 377.8 1351 381C1351 384.2 1343.67 396 1340 401.5L1345 409V453L1319.5 477.5L1229.5 489L1233.5 502L1206.5 508C1191 505.5 1159.4 499.8 1157 497C1154.6 494.2 1136.67 469.5 1128 457.5C1105.6 451.5 1080 438 1070 432L1111.5 377C1102.33 370.167 1084.2 355.4 1085 351C1085.8 346.6 1114 317.833 1128 304L1134 277L1160 264.5L1166.5 246L1183 193.5L1195.5 188.5L1215.5 151Z" fill="#D0B8A1"/>
<path d="M1214.42 207.605C1214.82 208.405 1215.92 208.272 1216.42 208.105C1229.25 208.105 1255.22 208.505 1256.42 208.105C1257.92 207.605 1239.92 168.605 1237.92 166.105C1235.92 163.605 1213.92 206.605 1214.42 207.605Z" fill="#B1927A"/>
<path d="M1233.91 175.5L1230.41 176C1235.91 167 1237.41 166 1237.91 166C1238.31 166 1241.41 172.333 1242.91 175.5L1241.91 178L1238.41 175.5L1236.41 177L1233.91 175.5Z" fill="#E9D4C4"/>
<path d="M1150.41 304.406C1150.69 304.952 1151.44 304.861 1151.78 304.748C1160.54 304.748 1178.27 305.021 1179.09 304.748C1180.11 304.406 1167.82 277.779 1166.46 276.072C1165.09 274.365 1150.07 303.723 1150.41 304.406Z" fill="#B1927A"/>
<path d="M1163.72 282.486L1161.33 282.828C1165.09 276.683 1166.11 276 1166.45 276C1166.73 276 1168.84 280.324 1169.87 282.486L1169.18 284.193L1166.8 282.486L1165.43 283.51L1163.72 282.486Z" fill="#E9D4C4"/>
<path d="M1230.42 210.765C1230.82 211.376 1231.92 211.274 1232.42 211.147C1245.25 211.147 1271.22 211.452 1272.42 211.147C1273.92 210.765 1255.92 180.989 1253.92 179.08C1251.92 177.171 1229.92 210.002 1230.42 210.765Z" fill="#C29F83"/>
<path d="M1249.91 186.253L1246.41 186.635C1251.91 179.763 1253.41 179 1253.91 179C1254.31 179 1257.41 183.835 1258.91 186.253L1257.91 188.162L1254.41 186.253L1252.41 187.398L1249.91 186.253Z" fill="#E9D4C4"/>
<path d="M1140.41 307.929C1140.69 308.346 1141.44 308.277 1141.78 308.19C1150.54 308.19 1168.27 308.398 1169.09 308.19C1170.11 307.929 1157.82 287.599 1156.46 286.296C1155.09 284.993 1140.07 307.408 1140.41 307.929Z" fill="#C29F83"/>
<path d="M1153.72 291.193L1151.33 291.454C1155.09 286.762 1156.11 286.241 1156.45 286.241C1156.73 286.241 1158.84 289.543 1159.87 291.193L1159.18 292.497L1156.8 291.193L1155.43 291.975L1153.72 291.193Z" fill="#E9D4C4"/>
<path d="M1312.27 207.442L1312.35 216.394" stroke="#B1927A" stroke-width="0.468401"/>
<path d="M1328.12 207.446L1328.12 216.596" stroke="#B1927A" stroke-width="0.468401"/>
<path d="M1325.01 207.084L1325.01 216.916" stroke="#7F7F7F" stroke-width="0.468401"/>
<path d="M1320.63 206.896L1320.63 215.808" stroke="#7F7F7F" stroke-width="0.468401"/>
<path d="M1316.57 207.026L1316.57 216.889" stroke="#7F7F7F" stroke-width="0.468401"/>
<path d="M1312.12 207.833C1318.65 207.1 1322.14 207.178 1328.2 207.833" stroke="#B1927A" stroke-width="0.468401"/>
<path d="M1312.27 214.078C1318.62 213.479 1322.07 213.417 1328.04 214.078" stroke="#B1927A" stroke-width="0.468401"/>
<path d="M1312.27 212.764C1318.76 211.957 1322.22 211.961 1328.04 212.764" stroke="#B1927A" stroke-width="0.468401"/>
<path d="M1311.81 215.991C1318.75 216.742 1322.52 216.847 1328.51 216.085" stroke="#B1927A" stroke-width="1.24907"/>
<g filter="url(#filter0_f_6_5422)">
<circle cx="1320.16" cy="208.535" r="4.44981" fill="#E3C525"/>
</g>
<g filter="url(#filter1_f_6_5422)">
<circle cx="1320.32" cy="207.286" r="6.32342" fill="#D8C76B"/>
</g>
<circle cx="1320.24" cy="209.082" r="2.96654" fill="#E3C525"/>
<circle cx="1320.24" cy="209.238" r="2.34201" fill="#FFE55C"/>
<circle cx="1320.32" cy="209.16" r="1.63941" fill="#FFF3B3"/>
<rect x="1314.93" y="202.836" width="10.7732" height="9.52416" fill="#D9D9D9" fill-opacity="0.6"/>
<path d="M1314.62 220.011V211.268H1326.17V220.011H1314.62Z" fill="#715941"/>
<line x1="1314.93" y1="211.268" x2="1314.93" y2="203.461" stroke="#715941" stroke-width="0.624535"/>
<line x1="1318.21" y1="211.268" x2="1318.21" y2="203.461" stroke="#715941" stroke-width="0.624535"/>
<line x1="1321.96" y1="211.268" x2="1321.96" y2="203.461" stroke="#715941" stroke-width="0.624535"/>
<line x1="1325.86" y1="211.268" x2="1325.86" y2="203.461" stroke="#715941" stroke-width="0.624535"/>
<path d="M1314.3 203.587V202.056H1326.48V203.587C1323.11 204.49 1316.96 203.963 1314.3 203.587Z" fill="#715941"/>
<path d="M1319.37 194.43L1320.68 193L1321.9 194.43L1321.33 196.258V197.291L1326.64 202.138C1323.31 202.837 1316.92 202.429 1314.15 202.138L1319.94 197.291V196.258L1319.37 194.43Z" fill="#715941"/>
<path d="M1312.27 207.599L1312.27 216.449" stroke="#C2A28A" stroke-width="0.468401"/>
<path d="M1328.12 207.52L1328.12 216.596" stroke="#C2A28A" stroke-width="0.468401"/>
<path d="M1325.01 207.833L1325.01 216.916" stroke="#C2A28A" stroke-width="0.468401"/>
<path d="M1320.63 207.989L1320.63 217.129" stroke="#C2A28A" stroke-width="0.468401"/>
<path d="M1316.57 207.866L1316.57 216.888" stroke="#C2A28A" stroke-width="0.468401"/>
<path d="M1312.12 207.924C1318.83 208.546 1322.36 208.599 1328.2 207.924" stroke="#C2A28A" stroke-width="0.468401"/>
<path d="M1312.27 214.078C1318.77 214.793 1322.23 214.796 1328.04 214.078" stroke="#C2A28A" stroke-width="0.468401"/>
<path d="M1312.27 212.764C1318.72 213.548 1322.18 213.552 1328.04 212.764" stroke="#C2A28A" stroke-width="0.468401"/>
<path d="M1311.81 215.991C1317.66 216.888 1324.06 216.888 1328.51 216.085" stroke="#C2A28A" stroke-width="1.24907"/>
<path d="M1331.48 219.699H1309.15V221.26H1311.28H1329.21H1331.48V219.699Z" fill="#594632"/>
<path d="M1310.56 223.134V221.26H1330.37V223.134H1310.56Z" fill="#634E38"/>
<path d="M1313.21 225.554L1311.65 223.134H1329.61L1327.97 225.554L1342.41 308.071H1300.41L1313.21 225.554Z" fill="#B1927A"/>
<path d="M1313.21 225.554L1311.65 223.134H1317.51L1317.9 225.554L1313.6 308.071H1300.41L1313.21 225.554Z" fill="#A68B75"/>
<path d="M1323.75 225.554L1323.83 223.134H1329.55L1327.91 225.554L1342.41 308.227L1330.57 308.071L1323.75 225.554Z" fill="#C2A28A"/>
<mask id="mask0_6_5422" style="mask-type:alpha" maskUnits="userSpaceOnUse" x="1311" y="223" width="19" height="3">
<path d="M1313.21 225.554L1311.65 223.134H1329.61L1327.97 225.554H1313.21Z" fill="#C64545"/>
</mask>
<g mask="url(#mask0_6_5422)">
<path d="M1313.21 225.554L1311.65 223.134H1329.61L1327.97 225.554H1313.21Z" fill="#7A6147"/>
<path d="M1313.21 225.554L1311.65 223.134H1317.51L1317.9 225.554L1313.6 308.071H1300.41L1313.21 225.554Z" fill="#655444"/>
<path d="M1323.91 226.1V223.134H1329.61L1327.97 225.554L1342.41 308.071H1330.54L1323.91 226.1Z" fill="#896E5A"/>
</g>
<mask id="mask1_6_5422" style="mask-type:alpha" maskUnits="userSpaceOnUse" x="1303" y="265" width="36" height="24">
<path d="M1315.11 271.379L1305.96 272.472L1303.84 286.134L1314.48 288.632H1328.96L1338.58 286.134L1335.06 265.993L1327.42 269.818L1315.11 271.379Z" fill="#C64545"/>
</mask>
<g mask="url(#mask1_6_5422)">
<path d="M1315.11 271.379L1305.96 272.472L1303.84 286.134L1314.48 288.632H1328.96L1338.58 286.134L1335.06 265.993L1327.39 269.271L1315.11 271.379Z" fill="#715941"/>
<path d="M1313.21 225.554L1311.65 223.134H1317.51L1317.9 225.554L1313.6 308.071H1300.41L1313.21 225.554Z" fill="#604D3A"/>
<path d="M1323.83 226.1V223.134H1329.53L1327.89 225.554L1342.33 308.071H1330.57L1323.83 226.1Z" fill="#7A6351"/>
</g>
<mask id="mask2_6_5422" style="mask-type:alpha" maskUnits="userSpaceOnUse" x="1310" y="225" width="22" height="21">
<path d="M1316.49 245.383L1310.25 244.524L1313.21 225.476H1327.97L1331.32 244.68L1325.39 245.383H1316.49Z" fill="#C64545"/>
</mask>
<g mask="url(#mask2_6_5422)">
<path d="M1316.49 245.383L1310.25 244.524L1313.21 225.476H1327.97L1331.32 244.68L1325.47 245.383H1316.49Z" fill="#715941"/>
<path d="M1313.21 225.476L1311.65 223.056H1317.51L1317.9 225.476L1313.6 307.993H1300.41L1313.21 225.476Z" fill="#604D3A"/>
<path d="M1323.83 226.022L1323.91 223.056H1329.61L1327.97 225.476L1342.41 307.993L1330.46 308.071L1323.83 226.022Z" fill="#7A6351"/>
</g>
<path d="M1297.44 304.594C1295.03 305.354 1294.88 308.218 1294.85 310.051C1295.28 314.059 1346.81 312.423 1347.31 312.431C1347.81 312.439 1348.33 311.448 1348.34 310.948C1348.35 310.448 1347.87 308.94 1347.89 307.94C1347.91 306.94 1347.42 306.432 1346.92 305.924C1346.43 305.415 1344.42 305.882 1343.44 304.865C1342.46 303.848 1341.47 303.332 1340.48 302.815C1339.48 302.298 1337.48 302.765 1335.48 302.231C1333.49 301.698 1331.42 306.164 1330.93 305.155C1330.45 304.147 1327.44 304.597 1326.96 303.589C1326.48 302.58 1322.45 304.013 1322.47 303.013C1322.49 302.013 1321.49 301.497 1320.5 300.98L1320.5 300.98C1319.51 300.463 1318 300.938 1317.51 300.43C1317.02 299.921 1314.45 303.879 1313.96 303.371C1313.47 302.862 1311.49 301.829 1309.99 301.804C1308.49 301.779 1307.97 302.77 1306.47 302.745C1304.97 302.72 1305.44 304.728 1303.46 303.695C1301.47 302.661 1300.46 303.644 1297.44 304.594Z" fill="#9A8472"/>
<defs>
<filter id="filter0_f_6_5422" x="1315.09" y="203.461" width="10.1487" height="10.1487" filterUnits="userSpaceOnUse" color-interpolation-filters="sRGB">
<feFlood flood-opacity="0" result="BackgroundImageFix"/>
<feBlend mode="normal" in="SourceGraphic" in2="BackgroundImageFix" result="shape"/>
<feGaussianBlur stdDeviation="0.312268" result="effect1_foregroundBlur_6_5422"/>
</filter>
<filter id="filter1_f_6_5422" x="1312.12" y="199.089" width="16.3941" height="16.394" filterUnits="userSpaceOnUse" color-interpolation-filters="sRGB">
<feFlood flood-opacity="0" result="BackgroundImageFix"/>
<feBlend mode="normal" in="SourceGraphic" in2="BackgroundImageFix" result="shape"/>
<feGaussianBlur stdDeviation="0.936803" result="effect1_foregroundBlur_6_5422"/>
</filter>
</defs>
</svg>
