<svg width="220" height="189" viewBox="0 0 220 189" fill="none" xmlns="http://www.w3.org/2000/svg">
<path d="M30.776 181.956L45.1446 186.182C46.5151 186.586 47.9664 186.628 49.3578 186.304L208.249 149.398C212.853 148.329 215.632 143.631 214.352 139.082L183.473 29.3305C182.744 26.742 180.805 24.6677 178.272 23.7669L166.158 19.4598C164.537 18.8834 162.777 18.8259 161.121 19.2953L7.55169 62.839C3.31641 64.0399 0.759273 68.3427 1.72892 72.6369L25.0309 175.832C25.6931 178.764 27.8917 181.108 30.776 181.956Z" fill="#A82020"/>
<path d="M18.5381 74.9209L42.6913 182.94C43.3557 185.911 46.3044 187.78 49.2752 187.113L214.24 150.068C217.355 149.368 219.225 146.176 218.313 143.117L184.023 28.1471C183.162 25.258 180.138 23.598 177.238 24.4221L22.4088 68.4191C19.5989 69.2175 17.9006 72.0702 18.5381 74.9209Z" fill="url(#paint0_linear_6_5294)"/>
<path d="M50.9033 57.5221L42.7812 29.3574C42.1087 27.0252 43.4482 24.5882 45.7776 23.9061L116.473 3.20524C118.764 2.53435 121.173 3.80956 121.906 6.08154L131.286 35.1475" stroke="#360A0A" stroke-width="6.0604"/>
<path d="M34.0635 182.5L9.32044 73.535C8.61525 70.4294 10.4591 67.314 13.5208 66.4379L170.563 21.4995" stroke="#831314"/>
<path d="M118.711 34.8934L139.054 29.0678L145.038 31.8463L124.695 37.6719L118.711 34.8934Z" fill="#360A0A"/>
<path d="M38.542 57.805L58.8847 51.9794L64.8686 54.7579L44.5259 60.5835L38.542 57.805Z" fill="#360A0A"/>
<path d="M18.5635 63.3667L29.0795 60.5881L35.0635 63.3667L24.5474 66.1453L18.5635 63.3667Z" fill="#FAE5E5"/>
<path d="M145.563 26.8667L156.08 24.0881L162.063 26.8667L151.547 29.6453L145.563 26.8667Z" fill="#FAE5E5"/>
<path d="M207.563 144L180.563 49.4998L177.563 38.9998L55.5635 180.5L207.563 144Z" fill="url(#paint1_linear_6_5294)"/>
<path d="M96.9861 88.0232L100.26 98.6178C100.531 99.4939 100.022 100.42 99.1377 100.662L86.6308 104.085C85.7655 104.322 85.2565 105.216 85.4943 106.081L89.3222 120.001C89.5607 120.868 90.459 121.376 91.325 121.133L104.349 117.484C105.202 117.245 106.09 117.734 106.342 118.584L110.038 131.002C110.288 131.841 111.157 132.33 112.004 132.109L129.502 127.54C130.389 127.309 130.908 126.39 130.649 125.511L127.056 113.324C126.799 112.454 127.305 111.543 128.179 111.301L140.363 107.928C141.231 107.688 141.737 106.786 141.491 105.92L137.531 91.9819C137.288 91.1275 136.404 90.627 135.546 90.8588L122.792 94.3059C121.962 94.5303 121.101 94.0682 120.829 93.2524L117.115 82.1106C116.84 81.2846 115.962 80.823 115.125 81.0646L98.0865 85.9848C97.214 86.2367 96.718 87.1555 96.9861 88.0232Z" fill="#FEE9E9"/>
<circle cx="114.063" cy="107.5" r="40.4509" stroke="#FCEFF0" stroke-width="6.09813"/>
<defs>
<linearGradient id="paint0_linear_6_5294" x1="118.701" y1="22.9355" x2="106.18" y2="184.508" gradientUnits="userSpaceOnUse">
<stop stop-color="#FD4F4F"/>
<stop offset="1" stop-color="#C63737"/>
</linearGradient>
<linearGradient id="paint1_linear_6_5294" x1="131.563" y1="38.9998" x2="89.5635" y2="173" gradientUnits="userSpaceOnUse">
<stop stop-color="#9E2727" stop-opacity="0"/>
<stop offset="0.959991" stop-color="#C73131"/>
</linearGradient>
</defs>
</svg>
