<svg width="80" height="51" viewBox="0 0 80 51" fill="none" xmlns="http://www.w3.org/2000/svg">
<g filter="url(#filter0_di_6_5423)">
<path d="M33.355 42.3784C35.0832 41.2442 35.3956 39.7825 35.4122 38.041C35.439 35.2252 34.4564 32.7593 32.958 30.0059C31.4757 27.2821 31.0585 25.3875 27.874 24.13C24.5124 22.8027 20.6653 23.4641 16.1622 24.733C12.2982 25.8219 9.48856 26.4492 6.9647 29.3109C5.76569 30.6704 4.68556 31.5856 4.72618 33.1696C4.74643 33.9592 5.35522 35.0527 5.35522 35.0527C5.35522 35.0527 4.47855 38.2879 5.66886 39.6557C6.61905 40.7476 9.36437 41.1988 9.36437 41.1988C9.36437 41.1988 10.2138 43.6129 11.7084 44.2801C13.0864 44.8952 15.8785 44.4117 15.8785 44.4117C15.8785 44.4117 17.5959 46.1582 19.2234 46.3613C20.7541 46.5523 23.2741 45.5116 23.2741 45.5116C23.2741 45.5116 25.523 46.1621 27.0029 45.8104C28.7357 45.3985 30.7585 43.2933 30.7585 43.2933C30.7585 43.2933 32.4667 42.9614 33.355 42.3784Z" fill="#FAECEC"/>
<mask id="mask0_6_5423" style="mask-type:alpha" maskUnits="userSpaceOnUse" x="4" y="23" width="32" height="24">
<path d="M33.355 42.3784C35.0832 41.2442 35.3956 39.7825 35.4122 38.041C35.439 35.2252 34.4564 32.7593 32.958 30.0059C31.4757 27.2821 31.0585 25.3875 27.874 24.13C24.5124 22.8027 20.6653 23.4641 16.1622 24.733C12.2982 25.8219 9.48856 26.4492 6.9647 29.3109C5.76569 30.6704 4.68556 31.5856 4.72618 33.1696C4.74643 33.9592 5.35522 35.0527 5.35522 35.0527C5.35522 35.0527 4.47855 38.2879 5.66886 39.6557C6.61905 40.7476 9.36437 41.1988 9.36437 41.1988C9.36437 41.1988 10.2138 43.6129 11.7084 44.2801C13.0864 44.8952 15.8785 44.4117 15.8785 44.4117C15.8785 44.4117 17.5959 46.1582 19.2234 46.3613C20.7541 46.5523 23.2741 45.5116 23.2741 45.5116C23.2741 45.5116 25.523 46.1621 27.0029 45.8104C28.7357 45.3985 30.7585 43.2933 30.7585 43.2933C30.7585 43.2933 32.4667 42.9614 33.355 42.3784Z" fill="#FAECEC"/>
</mask>
<g mask="url(#mask0_6_5423)">
<path d="M4.87619 35.0872C7.30622 33.1405 13.016 29.0485 16.4149 28.2541" stroke="#CDB3B3" stroke-width="1.01386" stroke-linecap="round"/>
<path d="M8.61752 41.5767C10.2269 38.8026 12.7107 35.2865 19.7831 31.1526" stroke="#CDB3B3" stroke-width="1.01386" stroke-linecap="round"/>
<path d="M15.2621 45.4572C15.8377 42.9257 19.1614 37.5213 21.9358 34.4845" stroke="#CDB3B3" stroke-width="1.01386" stroke-linecap="round"/>
<path d="M25.8895 34.7677C25.903 34.511 26.1572 34.2837 26.4574 34.26C26.7576 34.2364 26.9901 34.4253 26.9767 34.682L25.8895 34.7677ZM21.789 47.0214C22.5389 45.9266 23.5209 43.7582 24.3428 41.3844C25.1628 39.016 25.7983 36.5158 25.8895 34.7677L26.9767 34.682C26.8794 36.5464 26.213 39.1375 25.3833 41.534C24.5553 43.9252 23.5395 46.1956 22.7086 47.4085L21.789 47.0214Z" fill="#CDB3B3"/>
<path d="M29.5473 32.8007C29.4551 32.5683 29.6123 32.2895 29.8984 32.1777C30.1844 32.066 30.491 32.1638 30.5831 32.3962L29.5473 32.8007ZM28.9868 45.3647C30.0289 42.9597 31.36 37.3716 29.5473 32.8007L30.5831 32.3962C32.4984 37.2257 31.0974 43.0512 30.0015 45.5806L28.9868 45.3647Z" fill="#CDB3B3"/>
</g>
</g>
<g filter="url(#filter1_di_6_5423)">
<path fill-rule="evenodd" clip-rule="evenodd" d="M43.6514 17.7163C39.4809 15.9649 37.6957 12.6968 38.8758 9.95034C40.3814 6.67888 45.4634 5.20581 50.8964 5.27772C57.6876 5.36761 62.9407 8.79835 64.1801 12.1526C64.3444 12.5972 64.4061 13.1294 64.3885 13.7203C64.7625 13.6996 65.17 13.7419 65.5686 13.8992C66.3189 14.1954 67.6096 14.9417 68.1874 16.6358C68.5773 16.5576 69.056 16.546 69.5192 16.7288C70.1814 16.99 71.3677 17.6886 71.7392 19.3594C71.9692 19.3308 72.2335 19.3426 72.491 19.4444C73.009 19.6493 74.0157 20.2588 74.038 21.8482C74.8642 22.1564 76.5922 23.3331 76.2799 24.3463C76.1039 24.9177 74.3993 25.4508 73.0105 25.3519C72.2434 26.7126 71.401 26.845 70.4191 26.5597C70.2394 26.5075 70.0758 26.4332 69.9275 26.3435C68.8387 27.9402 67.6563 28.0777 66.3021 27.6876C65.8129 27.5466 65.4031 27.2964 65.0652 26.9961C63.9991 27.8631 62.8523 27.8676 61.5839 27.5013C60.6508 27.2319 59.949 26.6445 59.4453 26.0034C58.2349 27.1157 55.843 28.2067 51.6872 26.6458C48.4195 25.4184 47.5711 23.3836 46.7883 21.506C46.1412 19.9537 45.5388 18.5089 43.6514 17.7163Z" fill="#F2DC86"/>
<mask id="mask1_6_5423" style="mask-type:alpha" maskUnits="userSpaceOnUse" x="38" y="5" width="39" height="23">
<path fill-rule="evenodd" clip-rule="evenodd" d="M43.6514 17.7163C39.4809 15.9649 37.6957 12.6968 38.8758 9.95034C40.3814 6.67888 45.4634 5.20581 50.8964 5.27772C57.6876 5.36761 62.9407 8.79835 64.1801 12.1526C64.3444 12.5972 64.4061 13.1294 64.3886 13.7202C64.7625 13.6996 65.1701 13.7418 65.5687 13.8992C66.3189 14.1953 67.6096 14.9416 68.1874 16.6357C68.5773 16.5575 69.056 16.546 69.5193 16.7287C70.1814 16.9899 71.3677 17.6886 71.7392 19.3593C71.9693 19.3308 72.2335 19.3425 72.491 19.4444C73.0091 19.6492 74.0157 20.2587 74.038 21.8481C74.8642 22.1564 76.5922 23.333 76.28 24.3462C76.1039 24.9176 74.3993 25.4508 73.0106 25.3518C72.2435 26.7125 71.4011 26.8449 70.4191 26.5596C70.2394 26.5074 70.0758 26.4331 69.9276 26.3435C68.8387 27.9402 67.6563 28.0776 66.3021 27.6875C65.8129 27.5466 65.4031 27.2963 65.0652 26.9961C63.9992 27.8631 62.8523 27.8675 61.5839 27.5013C60.6508 27.2319 59.9491 26.6445 59.4453 26.0034C58.235 27.1157 55.843 28.2067 51.6872 26.6458C48.4195 25.4184 47.5711 23.3836 46.7883 21.506C46.1412 19.9537 45.5388 18.5089 43.6514 17.7163Z" fill="#D9D9D9"/>
</mask>
<g mask="url(#mask1_6_5423)">
<path d="M41.4164 11.3243L37.8809 11.3168L37.1708 12.7295L41.817 22.4975L53.893 29.8063L58.8488 26.9884L60.269 24.163L56.1101 18.0023L52.9334 15.5207L50.531 14.6671L45.5828 13.9495L41.4164 11.3243Z" fill="#EBD065"/>
<path d="M38.03 11.4199C38.03 11.4199 40.2752 10.7933 41.4173 11.208C43.1518 11.8378 43.684 12.8452 45.2674 13.6554C47.7354 14.9183 49.7141 13.8575 52.2364 15.0081C56.7201 17.0534 60.4976 24.5475 60.4976 24.5475" stroke="#CDB14B" stroke-width="0.766229"/>
<path d="M64.7729 12.5129C64.2641 15.8778 62.3259 23.6176 59.2624 25.5814" stroke="#CDB14B" stroke-width="0.766229" stroke-linecap="round"/>
<path d="M68.6605 15.062C68.7388 18.5565 67.198 25.8607 64.1345 27.8245" stroke="#CDB14B" stroke-width="0.766229" stroke-linecap="round"/>
<path d="M71.8622 16.5359C71.9404 20.0304 70.3997 27.3346 67.3361 29.2983" stroke="#CDB14B" stroke-width="0.766229" stroke-linecap="round"/>
<path d="M74.7854 17.8818C74.8636 21.3763 73.4345 27.8884 70.371 29.8521" stroke="#CDB14B" stroke-width="0.766229" stroke-linecap="round"/>
</g>
</g>
<defs>
<filter id="filter0_di_6_5423" x="3.42507" y="23.4023" width="33.2877" height="26.2824" filterUnits="userSpaceOnUse" color-interpolation-filters="sRGB">
<feFlood flood-opacity="0" result="BackgroundImageFix"/>
<feColorMatrix in="SourceAlpha" type="matrix" values="0 0 0 0 0 0 0 0 0 0 0 0 0 0 0 0 0 0 127 0" result="hardAlpha"/>
<feOffset dy="2"/>
<feGaussianBlur stdDeviation="0.65"/>
<feComposite in2="hardAlpha" operator="out"/>
<feColorMatrix type="matrix" values="0 0 0 0 0.8 0 0 0 0 0.686275 0 0 0 0 0.517647 0 0 0 1 0"/>
<feBlend mode="normal" in2="BackgroundImageFix" result="effect1_dropShadow_6_5423"/>
<feBlend mode="normal" in="SourceGraphic" in2="effect1_dropShadow_6_5423" result="shape"/>
<feColorMatrix in="SourceAlpha" type="matrix" values="0 0 0 0 0 0 0 0 0 0 0 0 0 0 0 0 0 0 127 0" result="hardAlpha"/>
<feOffset dy="-2"/>
<feComposite in2="hardAlpha" operator="arithmetic" k2="-1" k3="1"/>
<feColorMatrix type="matrix" values="0 0 0 0 0.76512 0 0 0 0 0.629543 0 0 0 0 0.629543 0 0 0 1 0"/>
<feBlend mode="normal" in2="shape" result="effect2_innerShadow_6_5423"/>
</filter>
<filter id="filter1_di_6_5423" x="36.3189" y="5.27515" width="40.1983" height="25.7959" filterUnits="userSpaceOnUse" color-interpolation-filters="sRGB">
<feFlood flood-opacity="0" result="BackgroundImageFix"/>
<feColorMatrix in="SourceAlpha" type="matrix" values="0 0 0 0 0 0 0 0 0 0 0 0 0 0 0 0 0 0 127 0" result="hardAlpha"/>
<feOffset dx="-1" dy="2"/>
<feGaussianBlur stdDeviation="0.6"/>
<feComposite in2="hardAlpha" operator="out"/>
<feColorMatrix type="matrix" values="0 0 0 0 0.796078 0 0 0 0 0.682353 0 0 0 0 0.517647 0 0 0 1 0"/>
<feBlend mode="normal" in2="BackgroundImageFix" result="effect1_dropShadow_6_5423"/>
<feBlend mode="normal" in="SourceGraphic" in2="effect1_dropShadow_6_5423" result="shape"/>
<feColorMatrix in="SourceAlpha" type="matrix" values="0 0 0 0 0 0 0 0 0 0 0 0 0 0 0 0 0 0 127 0" result="hardAlpha"/>
<feOffset dy="-2"/>
<feComposite in2="hardAlpha" operator="arithmetic" k2="-1" k3="1"/>
<feColorMatrix type="matrix" values="0 0 0 0 0.718066 0 0 0 0 0.618725 0 0 0 0 0.25684 0 0 0 1 0"/>
<feBlend mode="normal" in2="shape" result="effect2_innerShadow_6_5423"/>
</filter>
</defs>
</svg>
