<svg width="82" height="65" viewBox="0 0 82 65" fill="none" xmlns="http://www.w3.org/2000/svg">
<path d="M43 46.5L1 34.5L4 52L47.5 64.5L43 46.5Z" fill="#715941"/>
<path d="M43 46.5L1 34.5L24 25L65.5 36L43 46.5Z" fill="#473828"/>
<path d="M52.5 15.5L13.5 5.5L24 25L65.5 36L52.5 15.5Z" fill="#594632"/>
<path d="M52.5 15.5L70.5 9.5L81.5 28.5L65.5 36L52.5 15.5Z" fill="#92775C"/>
<path d="M52.5 15.5L13.5 5.5L34 0L70.5 9.5L52.5 15.5Z" fill="#715941"/>
<path d="M43 46.5L47.5 64.5L65.5 57V36L43 46.5Z" fill="#92775C"/>
<path d="M0.999924 27.5C-0.600076 29.9 0.66659 33.1666 1.49992 34.5L43 46.5L62 38L62.5 36.5C62.6667 36 62.9 34.9 62.5 34.5C62 34 62.5 33 62 32C61.5 31 60 30.5 59.5 29C59 27.5 56 26 54.5 25C53 24 51 23.5 50.5 22.5C50 21.5 45 22 44 21.5C43 21 40.5 21 38 19.5C35.5 18 35.5 19 33.5 17.5C31.5 16 28 17.5 25.5 17C23 16.5 21.5 17.5 19 17.5C16.5 17.5 14.5 18 12.5 19.5C10.5 21 11 20.5 7 21.5C3 22.5 2.99992 24.5 0.999924 27.5Z" fill="#E4D292"/>
<path d="M7.63908 30.6397C6.30765 32.58 7.3617 35.2209 8.05515 36.2988L42.5893 46L58.4001 39.1283L58.8162 37.9156C58.9549 37.5114 59.1491 36.6221 58.8162 36.2988C58.4001 35.8946 58.8162 35.0861 58.4001 34.2777C57.9841 33.4692 56.7358 33.065 56.3198 31.8524C55.9037 30.6397 53.4073 29.4271 52.159 28.6186C50.9108 27.8102 49.2465 27.406 48.8304 26.5975C48.4144 25.7891 44.2536 26.1933 43.4215 25.7891C42.5893 25.3849 40.509 25.3849 38.4286 24.1722C36.3482 22.9596 36.3482 23.768 34.6839 22.5554C33.0196 21.3427 30.1071 22.5554 28.0268 22.1512C25.9464 21.7469 24.6982 22.5554 22.6178 22.5554C20.5374 22.5554 18.8731 22.9596 17.2088 24.1722C15.5445 25.3849 15.9606 24.9807 12.632 25.7891C9.30344 26.5975 9.30338 28.2144 7.63908 30.6397Z" fill="#D5C282"/>
<path d="M2.57763 29.2797C1.37422 31.1391 2.32692 33.67 2.9537 34.703L34.1673 44L48.4578 37.4146L48.8339 36.2525C48.9592 35.8651 49.1347 35.0129 48.8339 34.703C48.4578 34.3156 48.8339 33.5409 48.4578 32.7661C48.0817 31.9914 46.9535 31.604 46.5775 30.4419C46.2014 29.2797 43.945 28.1176 42.8168 27.3429C41.6886 26.5681 40.1843 26.1807 39.8083 25.406C39.4322 24.6312 35.6716 25.0186 34.9194 24.6312C34.1673 24.2439 32.287 24.2439 30.4066 23.0817C28.5263 21.9196 28.5263 22.6944 27.022 21.5322C25.5178 20.3701 22.8853 21.5322 21.005 21.1449C19.1246 20.7575 17.9964 21.5322 16.1161 21.5322C14.2358 21.5322 12.7315 21.9196 11.2272 23.0817C9.72295 24.2439 10.099 23.8565 7.09049 24.6312C4.08195 25.406 4.0819 26.9555 2.57763 29.2797Z" fill="#F2DF9A"/>
<path d="M20.4179 36.1198C19.5473 37.4941 20.2365 39.3648 20.6899 40.1283L43.27 47L53.6078 42.1325L53.8798 41.2736C53.9705 40.9873 54.0975 40.3574 53.8798 40.1283C53.6078 39.842 53.8798 39.2693 53.6078 38.6967C53.3357 38.1241 52.5196 37.8377 52.2475 36.9788C51.9755 36.1198 50.3432 35.2608 49.5271 34.6882C48.7109 34.1156 47.6227 33.8292 47.3507 33.2566C47.0786 32.684 44.3581 32.9703 43.814 32.684C43.27 32.3976 41.9097 32.3976 40.5495 31.5387C39.1892 30.6797 39.1892 31.2523 38.101 30.3934C37.0128 29.5344 35.1085 30.3934 33.7483 30.1071C32.388 29.8207 31.5719 30.3934 30.2116 30.3934C28.8514 30.3934 27.7632 30.6797 26.675 31.5387C25.5868 32.3976 25.8589 32.1113 23.6825 32.684C21.5061 33.2566 21.5061 34.4019 20.4179 36.1198Z" fill="#E4D292"/>
</svg>
