<svg width="75" height="64" viewBox="0 0 75 64" fill="none" xmlns="http://www.w3.org/2000/svg">
<path d="M0 52.5845C16.4 24.5845 45.8333 6.58455 58.5 1.08455C61.082 -0.115451 63.5758 -0.0821178 64.5 0.0845489L63.5 0.584549C68.8333 1.91788 75.8 6.88455 61 16.0845C46.2 25.2845 20.1667 50.5845 9 62.0845L11 58.5845L5 63.0845L11 56.0845C10.2773 56.8072 8.24889 57.7911 7.36821 58.2812C7.20553 58.4726 7.07727 58.5845 7 58.5845C6.86135 58.5845 7.03029 58.4692 7.36821 58.2812C8.0477 57.4815 9.32764 55.2948 10 54.0845L2 62.0845L7 54.5845L2.5 59.0845C3.83333 56.9179 6.4 52.5845 6 52.5845C5.6 52.5845 4.16667 53.9179 3.5 54.5845L4.5 51.0845C4.1 51.4846 1.33333 56.2512 0 58.5845C0.8 56.5845 3.33333 50.4179 4.5 47.5845C3.3 48.3845 1 51.2512 0 52.5845Z" fill="#AA4245"/>
<path d="M74.5 54.454C59.0191 28.9932 27.2473 9.3671 13.2965 2.73667C10.4641 1.3222 7.9161 0.379176 6.99615 0.0844727L7.44618 0.968556C5.19605 -0.35753 -10.4497 5.37616 13.2965 18.2077C32.5 28.5845 58.4491 49.5917 68.1996 61.0845C67.8396 59.3164 68.3496 54.1594 68.6497 51.8019L70.8998 54.454L69.5497 50.9178L72.2499 53.57C71.4998 52.2439 70.1797 49.7685 70.8998 50.4758C71.6198 51.183 73.5999 53.4226 74.5 54.454Z" fill="#AA4245"/>
</svg>
